<svg xmlns="http://www.w3.org/2000/svg" viewBox="0 0 880 486" width="880" height="486" font-family="system-ui,-apple-system,'PingFang SC','Microsoft YaHei',sans-serif"><rect x="0.5" y="0.5" width="879" height="485" rx="14" fill="#ffffff" stroke="#e8e4ea" stroke-width="1"/><defs><marker id="ar" viewBox="0 0 10 10" refX="9" refY="5" markerWidth="7" markerHeight="7" orient="auto-start-reverse"><path d="M0,0 L10,5 L0,10 z" fill="#7b7280"/></marker><marker id="arp" viewBox="0 0 10 10" refX="9" refY="5" markerWidth="7" markerHeight="7" orient="auto-start-reverse"><path d="M0,0 L10,5 L0,10 z" fill="#ee5d7b"/></marker><marker id="arg" viewBox="0 0 10 10" refX="9" refY="5" markerWidth="7" markerHeight="7" orient="auto-start-reverse"><path d="M0,0 L10,5 L0,10 z" fill="#3f9e79"/></marker><marker id="arb" viewBox="0 0 10 10" refX="9" refY="5" markerWidth="7" markerHeight="7" orient="auto-start-reverse"><path d="M0,0 L10,5 L0,10 z" fill="#4d7fc4"/></marker><marker id="ara" viewBox="0 0 10 10" refX="9" refY="5" markerWidth="7" markerHeight="7" orient="auto-start-reverse"><path d="M0,0 L10,5 L0,10 z" fill="#c98a2b"/></marker></defs><text x="28" y="34" font-size="17" fill="#2f2a33" text-anchor="start" font-weight="700">挪的方向，由空位在哪决定</text><text x="28" y="58" font-size="13" fill="#7b7280" text-anchor="start" font-weight="400">每一步都是把一个元素搬进空位，空位跟着往反方向走 —— 搬反了，同一个值会被抄好几遍</text><rect x="28" y="84" width="824" height="172" rx="10" fill="#fdfcfd" stroke="#e8e4ea" stroke-width="1"/><text x="44" y="114" font-size="13.5" fill="#2f2a33" text-anchor="start" font-weight="700" font-family="ui-monospace,Menlo,Consolas,monospace">Insert(1, 99)</text><text x="44" y="138" font-size="11.5" fill="#7b7280" text-anchor="start" font-weight="400">空位在末尾 A[5]</text><text x="44" y="158" font-size="11.5" fill="#7b7280" text-anchor="start" font-weight="400">所以从后往前：</text><text x="44" y="178" font-size="11.5" fill="#7b7280" text-anchor="start" font-weight="400">4→5, 3→4, 2→3, 1→2</text><text x="259.0" y="228" font-size="10" fill="#7b7280" text-anchor="middle" font-weight="400" font-family="ui-monospace,Menlo,Consolas,monospace">0</text><rect x="236" y="170" width="46" height="40" rx="5" fill="#4d7fc4" fill-opacity="0.12" stroke="#4d7fc4" stroke-width="1.1"/><text x="259.0" y="194.68" font-size="13" fill="#2f2a33" text-anchor="middle" font-weight="500" font-family="ui-monospace,Menlo,Consolas,monospace">1</text><text x="311.0" y="228" font-size="10" fill="#7b7280" text-anchor="middle" font-weight="400" font-family="ui-monospace,Menlo,Consolas,monospace">1</text><rect x="288" y="170" width="46" height="40" rx="5" fill="#4d7fc4" fill-opacity="0.12" stroke="#4d7fc4" stroke-width="1.1"/><text x="311.0" y="194.68" font-size="13" fill="#2f2a33" text-anchor="middle" font-weight="500" font-family="ui-monospace,Menlo,Consolas,monospace">2</text><text x="363.0" y="228" font-size="10" fill="#7b7280" text-anchor="middle" font-weight="400" font-family="ui-monospace,Menlo,Consolas,monospace">2</text><rect x="340" y="170" width="46" height="40" rx="5" fill="#4d7fc4" fill-opacity="0.12" stroke="#4d7fc4" stroke-width="1.1"/><text x="363.0" y="194.68" font-size="13" fill="#2f2a33" text-anchor="middle" font-weight="500" font-family="ui-monospace,Menlo,Consolas,monospace">3</text><text x="415.0" y="228" font-size="10" fill="#7b7280" text-anchor="middle" font-weight="400" font-family="ui-monospace,Menlo,Consolas,monospace">3</text><rect x="392" y="170" width="46" height="40" rx="5" fill="#4d7fc4" fill-opacity="0.12" stroke="#4d7fc4" stroke-width="1.1"/><text x="415.0" y="194.68" font-size="13" fill="#2f2a33" text-anchor="middle" font-weight="500" font-family="ui-monospace,Menlo,Consolas,monospace">4</text><text x="467.0" y="228" font-size="10" fill="#7b7280" text-anchor="middle" font-weight="400" font-family="ui-monospace,Menlo,Consolas,monospace">4</text><rect x="444" y="170" width="46" height="40" rx="5" fill="#4d7fc4" fill-opacity="0.12" stroke="#4d7fc4" stroke-width="1.1"/><text x="467.0" y="194.68" font-size="13" fill="#2f2a33" text-anchor="middle" font-weight="500" font-family="ui-monospace,Menlo,Consolas,monospace">5</text><text x="519.0" y="228" font-size="10" fill="#7b7280" text-anchor="middle" font-weight="400" font-family="ui-monospace,Menlo,Consolas,monospace">5</text><rect x="496" y="170" width="46" height="40" rx="5" fill="#ffffff" stroke="#7b7280" stroke-width="1.1" stroke-opacity="0.6" stroke-dasharray="3 3"/><text x="519.0" y="195" font-size="11" fill="#7b7280" text-anchor="middle" font-weight="400">空</text><path d="M474.0,168 C474.0,134 512.0,134 512.0,168" fill="none" stroke="#3f9e79" stroke-width="1.3" marker-end="url(#arg)"/><text x="493.0" y="138.5" font-size="10.5" fill="#3f9e79" text-anchor="middle" font-weight="700">①</text><path d="M422.0,168 C422.0,134 460.0,134 460.0,168" fill="none" stroke="#3f9e79" stroke-width="1.3" marker-end="url(#arg)"/><text x="441.0" y="138.5" font-size="10.5" fill="#3f9e79" text-anchor="middle" font-weight="700">②</text><path d="M370.0,168 C370.0,134 408.0,134 408.0,168" fill="none" stroke="#3f9e79" stroke-width="1.3" marker-end="url(#arg)"/><text x="389.0" y="138.5" font-size="10.5" fill="#3f9e79" text-anchor="middle" font-weight="700">③</text><path d="M318.0,168 C318.0,134 356.0,134 356.0,168" fill="none" stroke="#3f9e79" stroke-width="1.3" marker-end="url(#arg)"/><text x="337.0" y="138.5" font-size="10.5" fill="#3f9e79" text-anchor="middle" font-weight="700">④</text><text x="267.0" y="130" font-size="12" fill="#ee5d7b" text-anchor="middle" font-weight="700" font-family="ui-monospace,Menlo,Consolas,monospace">⑤ 99</text><line x1="281.0" y1="136" x2="303.0" y2="164" stroke="#ee5d7b" stroke-width="1.3" marker-end="url(#arp)"/><text x="580" y="124" font-size="11.5" fill="#3f9e79" text-anchor="start" font-weight="600">照这个方向挪</text><rect x="580" y="134" width="30" height="30" rx="5" fill="#3f9e79" fill-opacity="0.12" stroke="#3f9e79" stroke-width="1.1"/><text x="595.0" y="153.32" font-size="12" fill="#2f2a33" text-anchor="middle" font-weight="500" font-family="ui-monospace,Menlo,Consolas,monospace">1</text><rect x="614" y="134" width="30" height="30" rx="5" fill="#3f9e79" fill-opacity="0.12" stroke="#3f9e79" stroke-width="1.1"/><text x="629.0" y="153.32" font-size="12" fill="#2f2a33" text-anchor="middle" font-weight="500" font-family="ui-monospace,Menlo,Consolas,monospace">99</text><rect x="648" y="134" width="30" height="30" rx="5" fill="#3f9e79" fill-opacity="0.12" stroke="#3f9e79" stroke-width="1.1"/><text x="663.0" y="153.32" font-size="12" fill="#2f2a33" text-anchor="middle" font-weight="500" font-family="ui-monospace,Menlo,Consolas,monospace">2</text><rect x="682" y="134" width="30" height="30" rx="5" fill="#3f9e79" fill-opacity="0.12" stroke="#3f9e79" stroke-width="1.1"/><text x="697.0" y="153.32" font-size="12" fill="#2f2a33" text-anchor="middle" font-weight="500" font-family="ui-monospace,Menlo,Consolas,monospace">3</text><rect x="716" y="134" width="30" height="30" rx="5" fill="#3f9e79" fill-opacity="0.12" stroke="#3f9e79" stroke-width="1.1"/><text x="731.0" y="153.32" font-size="12" fill="#2f2a33" text-anchor="middle" font-weight="500" font-family="ui-monospace,Menlo,Consolas,monospace">4</text><rect x="750" y="134" width="30" height="30" rx="5" fill="#3f9e79" fill-opacity="0.12" stroke="#3f9e79" stroke-width="1.1"/><text x="765.0" y="153.32" font-size="12" fill="#2f2a33" text-anchor="middle" font-weight="500" font-family="ui-monospace,Menlo,Consolas,monospace">5</text><text x="790" y="154" font-size="11" fill="#3f9e79" text-anchor="start" font-weight="400"></text><text x="580" y="196" font-size="11.5" fill="#ee5d7b" text-anchor="start" font-weight="600">反过来挪</text><rect x="580" y="206" width="30" height="30" rx="5" fill="#ee5d7b" fill-opacity="0.04" stroke="#ee5d7b" stroke-width="1.1"/><text x="595.0" y="225.32" font-size="12" fill="#2f2a33" text-anchor="middle" font-weight="500" font-family="ui-monospace,Menlo,Consolas,monospace">1</text><rect x="614" y="206" width="30" height="30" rx="5" fill="#ee5d7b" fill-opacity="0.04" stroke="#ee5d7b" stroke-width="1.1"/><text x="629.0" y="225.32" font-size="12" fill="#2f2a33" text-anchor="middle" font-weight="500" font-family="ui-monospace,Menlo,Consolas,monospace">99</text><rect x="648" y="206" width="30" height="30" rx="5" fill="#ee5d7b" fill-opacity="0.12" stroke="#ee5d7b" stroke-width="1.1"/><text x="663.0" y="225.32" font-size="12" fill="#2f2a33" text-anchor="middle" font-weight="500" font-family="ui-monospace,Menlo,Consolas,monospace">2</text><rect x="682" y="206" width="30" height="30" rx="5" fill="#ee5d7b" fill-opacity="0.12" stroke="#ee5d7b" stroke-width="1.1"/><text x="697.0" y="225.32" font-size="12" fill="#2f2a33" text-anchor="middle" font-weight="500" font-family="ui-monospace,Menlo,Consolas,monospace">2</text><rect x="716" y="206" width="30" height="30" rx="5" fill="#ee5d7b" fill-opacity="0.12" stroke="#ee5d7b" stroke-width="1.1"/><text x="731.0" y="225.32" font-size="12" fill="#2f2a33" text-anchor="middle" font-weight="500" font-family="ui-monospace,Menlo,Consolas,monospace">2</text><rect x="750" y="206" width="30" height="30" rx="5" fill="#ee5d7b" fill-opacity="0.12" stroke="#ee5d7b" stroke-width="1.1"/><text x="765.0" y="225.32" font-size="12" fill="#2f2a33" text-anchor="middle" font-weight="500" font-family="ui-monospace,Menlo,Consolas,monospace">2</text><text x="790" y="226" font-size="11" fill="#ee5d7b" text-anchor="start" font-weight="400">2 被抄了 4 遍</text><rect x="28" y="276" width="824" height="172" rx="10" fill="#fdfcfd" stroke="#e8e4ea" stroke-width="1"/><text x="44" y="306" font-size="13.5" fill="#2f2a33" text-anchor="start" font-weight="700" font-family="ui-monospace,Menlo,Consolas,monospace">Delete(1)</text><text x="44" y="330" font-size="11.5" fill="#7b7280" text-anchor="start" font-weight="400">空位在被删的 A[1]</text><text x="44" y="350" font-size="11.5" fill="#7b7280" text-anchor="start" font-weight="400">所以从前往后：</text><text x="44" y="370" font-size="11.5" fill="#7b7280" text-anchor="start" font-weight="400">2→1, 3→2, 4→3</text><text x="259.0" y="420" font-size="10" fill="#7b7280" text-anchor="middle" font-weight="400" font-family="ui-monospace,Menlo,Consolas,monospace">0</text><rect x="236" y="362" width="46" height="40" rx="5" fill="#4d7fc4" fill-opacity="0.12" stroke="#4d7fc4" stroke-width="1.1"/><text x="259.0" y="386.68" font-size="13" fill="#2f2a33" text-anchor="middle" font-weight="500" font-family="ui-monospace,Menlo,Consolas,monospace">1</text><text x="311.0" y="420" font-size="10" fill="#7b7280" text-anchor="middle" font-weight="400" font-family="ui-monospace,Menlo,Consolas,monospace">1</text><rect x="288" y="362" width="46" height="40" rx="5" fill="#ffffff" stroke="#7b7280" stroke-width="1.1" stroke-opacity="0.6" stroke-dasharray="3 3"/><text x="311.0" y="387" font-size="11" fill="#7b7280" text-anchor="middle" font-weight="400">空</text><text x="363.0" y="420" font-size="10" fill="#7b7280" text-anchor="middle" font-weight="400" font-family="ui-monospace,Menlo,Consolas,monospace">2</text><rect x="340" y="362" width="46" height="40" rx="5" fill="#4d7fc4" fill-opacity="0.12" stroke="#4d7fc4" stroke-width="1.1"/><text x="363.0" y="386.68" font-size="13" fill="#2f2a33" text-anchor="middle" font-weight="500" font-family="ui-monospace,Menlo,Consolas,monospace">3</text><text x="415.0" y="420" font-size="10" fill="#7b7280" text-anchor="middle" font-weight="400" font-family="ui-monospace,Menlo,Consolas,monospace">3</text><rect x="392" y="362" width="46" height="40" rx="5" fill="#4d7fc4" fill-opacity="0.12" stroke="#4d7fc4" stroke-width="1.1"/><text x="415.0" y="386.68" font-size="13" fill="#2f2a33" text-anchor="middle" font-weight="500" font-family="ui-monospace,Menlo,Consolas,monospace">4</text><text x="467.0" y="420" font-size="10" fill="#7b7280" text-anchor="middle" font-weight="400" font-family="ui-monospace,Menlo,Consolas,monospace">4</text><rect x="444" y="362" width="46" height="40" rx="5" fill="#4d7fc4" fill-opacity="0.12" stroke="#4d7fc4" stroke-width="1.1"/><text x="467.0" y="386.68" font-size="13" fill="#2f2a33" text-anchor="middle" font-weight="500" font-family="ui-monospace,Menlo,Consolas,monospace">5</text><path d="M356.0,360 C356.0,326 318.0,326 318.0,360" fill="none" stroke="#3f9e79" stroke-width="1.3" marker-end="url(#arg)"/><text x="337.0" y="330.5" font-size="10.5" fill="#3f9e79" text-anchor="middle" font-weight="700">①</text><path d="M408.0,360 C408.0,326 370.0,326 370.0,360" fill="none" stroke="#3f9e79" stroke-width="1.3" marker-end="url(#arg)"/><text x="389.0" y="330.5" font-size="10.5" fill="#3f9e79" text-anchor="middle" font-weight="700">②</text><path d="M460.0,360 C460.0,326 422.0,326 422.0,360" fill="none" stroke="#3f9e79" stroke-width="1.3" marker-end="url(#arg)"/><text x="441.0" y="330.5" font-size="10.5" fill="#3f9e79" text-anchor="middle" font-weight="700">③</text><text x="580" y="316" font-size="11.5" fill="#3f9e79" text-anchor="start" font-weight="600">照这个方向挪</text><rect x="580" y="326" width="30" height="30" rx="5" fill="#3f9e79" fill-opacity="0.12" stroke="#3f9e79" stroke-width="1.1"/><text x="595.0" y="345.32" font-size="12" fill="#2f2a33" text-anchor="middle" font-weight="500" font-family="ui-monospace,Menlo,Consolas,monospace">1</text><rect x="614" y="326" width="30" height="30" rx="5" fill="#3f9e79" fill-opacity="0.12" stroke="#3f9e79" stroke-width="1.1"/><text x="629.0" y="345.32" font-size="12" fill="#2f2a33" text-anchor="middle" font-weight="500" font-family="ui-monospace,Menlo,Consolas,monospace">3</text><rect x="648" y="326" width="30" height="30" rx="5" fill="#3f9e79" fill-opacity="0.12" stroke="#3f9e79" stroke-width="1.1"/><text x="663.0" y="345.32" font-size="12" fill="#2f2a33" text-anchor="middle" font-weight="500" font-family="ui-monospace,Menlo,Consolas,monospace">4</text><rect x="682" y="326" width="30" height="30" rx="5" fill="#3f9e79" fill-opacity="0.12" stroke="#3f9e79" stroke-width="1.1"/><text x="697.0" y="345.32" font-size="12" fill="#2f2a33" text-anchor="middle" font-weight="500" font-family="ui-monospace,Menlo,Consolas,monospace">5</text><text x="722" y="346" font-size="11" fill="#3f9e79" text-anchor="start" font-weight="400">再 length--</text><text x="580" y="388" font-size="11.5" fill="#ee5d7b" text-anchor="start" font-weight="600">反过来挪</text><rect x="580" y="398" width="30" height="30" rx="5" fill="#ee5d7b" fill-opacity="0.04" stroke="#ee5d7b" stroke-width="1.1"/><text x="595.0" y="417.32" font-size="12" fill="#2f2a33" text-anchor="middle" font-weight="500" font-family="ui-monospace,Menlo,Consolas,monospace">1</text><rect x="614" y="398" width="30" height="30" rx="5" fill="#ee5d7b" fill-opacity="0.04" stroke="#ee5d7b" stroke-width="1.1"/><text x="629.0" y="417.32" font-size="12" fill="#2f2a33" text-anchor="middle" font-weight="500" font-family="ui-monospace,Menlo,Consolas,monospace">5</text><rect x="648" y="398" width="30" height="30" rx="5" fill="#ee5d7b" fill-opacity="0.12" stroke="#ee5d7b" stroke-width="1.1"/><text x="663.0" y="417.32" font-size="12" fill="#2f2a33" text-anchor="middle" font-weight="500" font-family="ui-monospace,Menlo,Consolas,monospace">5</text><rect x="682" y="398" width="30" height="30" rx="5" fill="#ee5d7b" fill-opacity="0.12" stroke="#ee5d7b" stroke-width="1.1"/><text x="697.0" y="417.32" font-size="12" fill="#2f2a33" text-anchor="middle" font-weight="500" font-family="ui-monospace,Menlo,Consolas,monospace">5</text><text x="722" y="418" font-size="11" fill="#ee5d7b" text-anchor="start" font-weight="400">5 被抄了 3 遍</text><text x="28" y="474" font-size="11.5" fill="#7b7280" text-anchor="start" font-weight="400">插入挪 length − index 次，删除挪 length − 1 − index 次：越靠前越贵，插在末尾、删末尾一次都不用挪。</text></svg>