<svg xmlns="http://www.w3.org/2000/svg" viewBox="0 0 1200 720" width="1200" height="720"><defs><linearGradient id="g" x1="0" y1="0" x2="1" y2="1"><stop offset="0" stop-color="#1d1219"/><stop offset="1" stop-color="#2e1f27"/></linearGradient></defs><rect width="1200" height="720" fill="url(#g)"/><rect x="20" y="16" width="38" height="30" rx="3" fill="#ee5d7b" fill-opacity="0.054"/><rect x="70" y="16" width="38" height="30" rx="3" fill="#ee5d7b" fill-opacity="0.038"/><rect x="120" y="16" width="38" height="30" rx="3" fill="#ee5d7b" fill-opacity="0.038"/><rect x="170" y="16" width="38" height="30" rx="3" fill="#ee5d7b" fill-opacity="0.054"/><rect x="220" y="16" width="38" height="30" rx="3" fill="#ee5d7b" fill-opacity="0.038"/><rect x="270" y="16" width="38" height="30" rx="3" fill="#ee5d7b" fill-opacity="0.038"/><rect x="320" y="16" width="38" height="30" rx="3" fill="#ee5d7b" fill-opacity="0.054"/><rect x="370" y="16" width="38" height="30" rx="3" fill="#ee5d7b" fill-opacity="0.038"/><rect x="420" y="16" width="38" height="30" rx="3" fill="#ee5d7b" fill-opacity="0.038"/><rect x="470" y="16" width="38" height="30" rx="3" fill="#ee5d7b" fill-opacity="0.054"/><rect x="520" y="16" width="38" height="30" rx="3" fill="#ee5d7b" fill-opacity="0.038"/><rect x="570" y="16" width="38" height="30" rx="3" fill="#ee5d7b" fill-opacity="0.038"/><rect x="620" y="16" width="38" height="30" rx="3" fill="#ee5d7b" fill-opacity="0.054"/><rect x="670" y="16" width="38" height="30" rx="3" fill="#ee5d7b" fill-opacity="0.038"/><rect x="720" y="16" width="38" height="30" rx="3" fill="#ee5d7b" fill-opacity="0.038"/><rect x="770" y="16" width="38" height="30" rx="3" fill="#ee5d7b" fill-opacity="0.054"/><rect x="820" y="16" width="38" height="30" rx="3" fill="#ee5d7b" fill-opacity="0.038"/><rect x="870" y="16" width="38" height="30" rx="3" fill="#ee5d7b" fill-opacity="0.038"/><rect x="920" y="16" width="38" height="30" rx="3" fill="#ee5d7b" fill-opacity="0.054"/><rect x="970" y="16" width="38" height="30" rx="3" fill="#ee5d7b" fill-opacity="0.038"/><rect x="1020" y="16" width="38" height="30" rx="3" fill="#ee5d7b" fill-opacity="0.038"/><rect x="1070" y="16" width="38" height="30" rx="3" fill="#ee5d7b" fill-opacity="0.054"/><rect x="1120" y="16" width="38" height="30" rx="3" fill="#ee5d7b" fill-opacity="0.038"/><rect x="1170" y="16" width="38" height="30" rx="3" fill="#ee5d7b" fill-opacity="0.038"/><rect x="20" y="76" width="38" height="30" rx="3" fill="#ee5d7b" fill-opacity="0.038"/><rect x="70" y="76" width="38" height="30" rx="3" fill="#ee5d7b" fill-opacity="0.054"/><rect x="120" y="76" width="38" height="30" rx="3" fill="#ee5d7b" fill-opacity="0.038"/><rect x="170" y="76" width="38" height="30" rx="3" fill="#ee5d7b" fill-opacity="0.038"/><rect x="220" y="76" width="38" height="30" rx="3" fill="#ee5d7b" fill-opacity="0.054"/><rect x="270" y="76" width="38" height="30" rx="3" fill="#ee5d7b" fill-opacity="0.038"/><rect x="320" y="76" width="38" height="30" rx="3" fill="#ee5d7b" fill-opacity="0.038"/><rect x="370" y="76" width="38" height="30" rx="3" fill="#ee5d7b" fill-opacity="0.054"/><rect x="420" y="76" width="38" height="30" rx="3" fill="#ee5d7b" fill-opacity="0.038"/><rect x="470" y="76" width="38" height="30" rx="3" fill="#ee5d7b" fill-opacity="0.038"/><rect x="520" y="76" width="38" height="30" rx="3" fill="#ee5d7b" fill-opacity="0.054"/><rect x="570" y="76" width="38" height="30" rx="3" fill="#ee5d7b" fill-opacity="0.038"/><rect x="620" y="76" width="38" height="30" rx="3" fill="#ee5d7b" fill-opacity="0.038"/><rect x="670" y="76" width="38" height="30" rx="3" fill="#ee5d7b" fill-opacity="0.054"/><rect x="720" y="76" width="38" height="30" rx="3" fill="#ee5d7b" fill-opacity="0.038"/><rect x="770" y="76" width="38" height="30" rx="3" fill="#ee5d7b" fill-opacity="0.038"/><rect x="820" y="76" width="38" height="30" rx="3" fill="#ee5d7b" fill-opacity="0.054"/><rect x="870" y="76" width="38" height="30" rx="3" fill="#ee5d7b" fill-opacity="0.038"/><rect x="920" y="76" width="38" height="30" rx="3" fill="#ee5d7b" fill-opacity="0.038"/><rect x="970" y="76" width="38" height="30" rx="3" fill="#ee5d7b" fill-opacity="0.054"/><rect x="1020" y="76" width="38" height="30" rx="3" fill="#ee5d7b" fill-opacity="0.038"/><rect x="1070" y="76" width="38" height="30" rx="3" fill="#ee5d7b" fill-opacity="0.038"/><rect x="1120" y="76" width="38" height="30" rx="3" fill="#ee5d7b" fill-opacity="0.054"/><rect x="1170" y="76" width="38" height="30" rx="3" fill="#ee5d7b" fill-opacity="0.038"/><rect x="20" y="136" width="38" height="30" rx="3" fill="#ee5d7b" fill-opacity="0.038"/><rect x="70" y="136" width="38" height="30" rx="3" fill="#ee5d7b" fill-opacity="0.038"/><rect x="120" y="136" width="38" height="30" rx="3" fill="#ee5d7b" fill-opacity="0.054"/><rect x="170" y="136" width="38" height="30" rx="3" fill="#ee5d7b" fill-opacity="0.038"/><rect x="220" y="136" width="38" height="30" rx="3" fill="#ee5d7b" fill-opacity="0.038"/><rect x="270" y="136" width="38" height="30" rx="3" fill="#ee5d7b" fill-opacity="0.054"/><rect x="320" y="136" width="38" height="30" rx="3" fill="#ee5d7b" fill-opacity="0.038"/><rect x="370" y="136" width="38" height="30" rx="3" fill="#ee5d7b" fill-opacity="0.038"/><rect x="420" y="136" width="38" height="30" rx="3" fill="#ee5d7b" fill-opacity="0.054"/><rect x="470" y="136" width="38" height="30" rx="3" fill="#ee5d7b" fill-opacity="0.038"/><rect x="520" y="136" width="38" height="30" rx="3" fill="#ee5d7b" fill-opacity="0.038"/><rect x="570" y="136" width="38" height="30" rx="3" fill="#ee5d7b" fill-opacity="0.054"/><rect x="620" y="136" width="38" height="30" rx="3" fill="#ee5d7b" fill-opacity="0.038"/><rect x="670" y="136" width="38" height="30" rx="3" fill="#ee5d7b" fill-opacity="0.038"/><rect x="720" y="136" width="38" height="30" rx="3" fill="#ee5d7b" fill-opacity="0.054"/><rect x="770" y="136" width="38" height="30" rx="3" fill="#ee5d7b" fill-opacity="0.038"/><rect x="820" y="136" width="38" height="30" rx="3" fill="#ee5d7b" fill-opacity="0.038"/><rect x="870" y="136" width="38" height="30" rx="3" fill="#ee5d7b" fill-opacity="0.054"/><rect x="920" y="136" width="38" height="30" rx="3" fill="#ee5d7b" fill-opacity="0.038"/><rect x="970" y="136" width="38" height="30" rx="3" fill="#ee5d7b" fill-opacity="0.038"/><rect x="1020" y="136" width="38" height="30" rx="3" fill="#ee5d7b" fill-opacity="0.054"/><rect x="1070" y="136" width="38" height="30" rx="3" fill="#ee5d7b" fill-opacity="0.038"/><rect x="1120" y="136" width="38" height="30" rx="3" fill="#ee5d7b" fill-opacity="0.038"/><rect x="1170" y="136" width="38" height="30" rx="3" fill="#ee5d7b" fill-opacity="0.054"/><rect x="20" y="196" width="38" height="30" rx="3" fill="#ee5d7b" fill-opacity="0.054"/><rect x="70" y="196" width="38" height="30" rx="3" fill="#ee5d7b" fill-opacity="0.038"/><rect x="120" y="196" width="38" height="30" rx="3" fill="#ee5d7b" fill-opacity="0.038"/><rect x="170" y="196" width="38" height="30" rx="3" fill="#ee5d7b" fill-opacity="0.054"/><rect x="220" y="196" width="38" height="30" rx="3" fill="#ee5d7b" fill-opacity="0.038"/><rect x="270" y="196" width="38" height="30" rx="3" fill="#ee5d7b" fill-opacity="0.038"/><rect x="320" y="196" width="38" height="30" rx="3" fill="#ee5d7b" fill-opacity="0.054"/><rect x="370" y="196" width="38" height="30" rx="3" fill="#ee5d7b" fill-opacity="0.038"/><rect x="420" y="196" width="38" height="30" rx="3" fill="#ee5d7b" fill-opacity="0.038"/><rect x="470" y="196" width="38" height="30" rx="3" fill="#ee5d7b" fill-opacity="0.054"/><rect x="520" y="196" width="38" height="30" rx="3" fill="#ee5d7b" fill-opacity="0.038"/><rect x="570" y="196" width="38" height="30" rx="3" fill="#ee5d7b" fill-opacity="0.038"/><rect x="620" y="196" width="38" height="30" rx="3" fill="#ee5d7b" fill-opacity="0.054"/><rect x="670" y="196" width="38" height="30" rx="3" fill="#ee5d7b" fill-opacity="0.038"/><rect x="720" y="196" width="38" height="30" rx="3" fill="#ee5d7b" fill-opacity="0.038"/><rect x="770" y="196" width="38" height="30" rx="3" fill="#ee5d7b" fill-opacity="0.054"/><rect x="820" y="196" width="38" height="30" rx="3" fill="#ee5d7b" fill-opacity="0.038"/><rect x="870" y="196" width="38" height="30" rx="3" fill="#ee5d7b" fill-opacity="0.038"/><rect x="920" y="196" width="38" height="30" rx="3" fill="#ee5d7b" fill-opacity="0.054"/><rect x="970" y="196" width="38" height="30" rx="3" fill="#ee5d7b" fill-opacity="0.038"/><rect x="1020" y="196" width="38" height="30" rx="3" fill="#ee5d7b" fill-opacity="0.038"/><rect x="1070" y="196" width="38" height="30" rx="3" fill="#ee5d7b" fill-opacity="0.054"/><rect x="1120" y="196" width="38" height="30" rx="3" fill="#ee5d7b" fill-opacity="0.038"/><rect x="1170" y="196" width="38" height="30" rx="3" fill="#ee5d7b" fill-opacity="0.038"/><rect x="20" y="256" width="38" height="30" rx="3" fill="#ee5d7b" fill-opacity="0.038"/><rect x="70" y="256" width="38" height="30" rx="3" fill="#ee5d7b" fill-opacity="0.054"/><rect x="120" y="256" width="38" height="30" rx="3" fill="#ee5d7b" fill-opacity="0.038"/><rect x="170" y="256" width="38" height="30" rx="3" fill="#ee5d7b" fill-opacity="0.038"/><rect x="220" y="256" width="38" height="30" rx="3" fill="#ee5d7b" fill-opacity="0.054"/><rect x="270" y="256" width="38" height="30" rx="3" fill="#ee5d7b" fill-opacity="0.038"/><rect x="320" y="256" width="38" height="30" rx="3" fill="#ee5d7b" fill-opacity="0.038"/><rect x="370" y="256" width="38" height="30" rx="3" fill="#ee5d7b" fill-opacity="0.054"/><rect x="420" y="256" width="38" height="30" rx="3" fill="#ee5d7b" fill-opacity="0.038"/><rect x="470" y="256" width="38" height="30" rx="3" fill="#ee5d7b" fill-opacity="0.038"/><rect x="520" y="256" width="38" height="30" rx="3" fill="#ee5d7b" fill-opacity="0.054"/><rect x="570" y="256" width="38" height="30" rx="3" fill="#ee5d7b" fill-opacity="0.038"/><rect x="620" y="256" width="38" height="30" rx="3" fill="#ee5d7b" fill-opacity="0.038"/><rect x="670" y="256" width="38" height="30" rx="3" fill="#ee5d7b" fill-opacity="0.054"/><rect x="720" y="256" width="38" height="30" rx="3" fill="#ee5d7b" fill-opacity="0.038"/><rect x="770" y="256" width="38" height="30" rx="3" fill="#ee5d7b" fill-opacity="0.038"/><rect x="820" y="256" width="38" height="30" rx="3" fill="#ee5d7b" fill-opacity="0.054"/><rect x="870" y="256" width="38" height="30" rx="3" fill="#ee5d7b" fill-opacity="0.038"/><rect x="920" y="256" width="38" height="30" rx="3" fill="#ee5d7b" fill-opacity="0.038"/><rect x="970" y="256" width="38" height="30" rx="3" fill="#ee5d7b" fill-opacity="0.054"/><rect x="1020" y="256" width="38" height="30" rx="3" fill="#ee5d7b" fill-opacity="0.038"/><rect x="1070" y="256" width="38" height="30" rx="3" fill="#ee5d7b" fill-opacity="0.038"/><rect x="1120" y="256" width="38" height="30" rx="3" fill="#ee5d7b" fill-opacity="0.054"/><rect x="1170" y="256" width="38" height="30" rx="3" fill="#ee5d7b" fill-opacity="0.038"/><rect x="20" y="316" width="38" height="30" rx="3" fill="#ee5d7b" fill-opacity="0.038"/><rect x="70" y="316" width="38" height="30" rx="3" fill="#ee5d7b" fill-opacity="0.038"/><rect x="120" y="316" width="38" height="30" rx="3" fill="#ee5d7b" fill-opacity="0.054"/><rect x="170" y="316" width="38" height="30" rx="3" fill="#ee5d7b" fill-opacity="0.038"/><rect x="220" y="316" width="38" height="30" rx="3" fill="#ee5d7b" fill-opacity="0.038"/><rect x="270" y="316" width="38" height="30" rx="3" fill="#ee5d7b" fill-opacity="0.054"/><rect x="320" y="316" width="38" height="30" rx="3" fill="#ee5d7b" fill-opacity="0.038"/><rect x="370" y="316" width="38" height="30" rx="3" fill="#ee5d7b" fill-opacity="0.038"/><rect x="420" y="316" width="38" height="30" rx="3" fill="#ee5d7b" fill-opacity="0.054"/><rect x="470" y="316" width="38" height="30" rx="3" fill="#ee5d7b" fill-opacity="0.038"/><rect x="520" y="316" width="38" height="30" rx="3" fill="#ee5d7b" fill-opacity="0.038"/><rect x="570" y="316" width="38" height="30" rx="3" fill="#ee5d7b" fill-opacity="0.054"/><rect x="620" y="316" width="38" height="30" rx="3" fill="#ee5d7b" fill-opacity="0.038"/><rect x="670" y="316" width="38" height="30" rx="3" fill="#ee5d7b" fill-opacity="0.038"/><rect x="720" y="316" width="38" height="30" rx="3" fill="#ee5d7b" fill-opacity="0.054"/><rect x="770" y="316" width="38" height="30" rx="3" fill="#ee5d7b" fill-opacity="0.038"/><rect x="820" y="316" width="38" height="30" rx="3" fill="#ee5d7b" fill-opacity="0.038"/><rect x="870" y="316" width="38" height="30" rx="3" fill="#ee5d7b" fill-opacity="0.054"/><rect x="920" y="316" width="38" height="30" rx="3" fill="#ee5d7b" fill-opacity="0.038"/><rect x="970" y="316" width="38" height="30" rx="3" fill="#ee5d7b" fill-opacity="0.038"/><rect x="1020" y="316" width="38" height="30" rx="3" fill="#ee5d7b" fill-opacity="0.054"/><rect x="1070" y="316" width="38" height="30" rx="3" fill="#ee5d7b" fill-opacity="0.038"/><rect x="1120" y="316" width="38" height="30" rx="3" fill="#ee5d7b" fill-opacity="0.038"/><rect x="1170" y="316" width="38" height="30" rx="3" fill="#ee5d7b" fill-opacity="0.054"/><rect x="20" y="376" width="38" height="30" rx="3" fill="#ee5d7b" fill-opacity="0.054"/><rect x="70" y="376" width="38" height="30" rx="3" fill="#ee5d7b" fill-opacity="0.038"/><rect x="120" y="376" width="38" height="30" rx="3" fill="#ee5d7b" fill-opacity="0.038"/><rect x="170" y="376" width="38" height="30" rx="3" fill="#ee5d7b" fill-opacity="0.054"/><rect x="220" y="376" width="38" height="30" rx="3" fill="#ee5d7b" fill-opacity="0.038"/><rect x="270" y="376" width="38" height="30" rx="3" fill="#ee5d7b" fill-opacity="0.038"/><rect x="320" y="376" width="38" height="30" rx="3" fill="#ee5d7b" fill-opacity="0.054"/><rect x="370" y="376" width="38" height="30" rx="3" fill="#ee5d7b" fill-opacity="0.038"/><rect x="420" y="376" width="38" height="30" rx="3" fill="#ee5d7b" fill-opacity="0.038"/><rect x="470" y="376" width="38" height="30" rx="3" fill="#ee5d7b" fill-opacity="0.054"/><rect x="520" y="376" width="38" height="30" rx="3" fill="#ee5d7b" fill-opacity="0.038"/><rect x="570" y="376" width="38" height="30" rx="3" fill="#ee5d7b" fill-opacity="0.038"/><rect x="620" y="376" width="38" height="30" rx="3" fill="#ee5d7b" fill-opacity="0.054"/><rect x="670" y="376" width="38" height="30" rx="3" fill="#ee5d7b" fill-opacity="0.038"/><rect x="720" y="376" width="38" height="30" rx="3" fill="#ee5d7b" fill-opacity="0.038"/><rect x="770" y="376" width="38" height="30" rx="3" fill="#ee5d7b" fill-opacity="0.054"/><rect x="820" y="376" width="38" height="30" rx="3" fill="#ee5d7b" fill-opacity="0.038"/><rect x="870" y="376" width="38" height="30" rx="3" fill="#ee5d7b" fill-opacity="0.038"/><rect x="920" y="376" width="38" height="30" rx="3" fill="#ee5d7b" fill-opacity="0.054"/><rect x="970" y="376" width="38" height="30" rx="3" fill="#ee5d7b" fill-opacity="0.038"/><rect x="1020" y="376" width="38" height="30" rx="3" fill="#ee5d7b" fill-opacity="0.038"/><rect x="1070" y="376" width="38" height="30" rx="3" fill="#ee5d7b" fill-opacity="0.054"/><rect x="1120" y="376" width="38" height="30" rx="3" fill="#ee5d7b" fill-opacity="0.038"/><rect x="1170" y="376" width="38" height="30" rx="3" fill="#ee5d7b" fill-opacity="0.038"/><rect x="20" y="436" width="38" height="30" rx="3" fill="#ee5d7b" fill-opacity="0.038"/><rect x="70" y="436" width="38" height="30" rx="3" fill="#ee5d7b" fill-opacity="0.054"/><rect x="120" y="436" width="38" height="30" rx="3" fill="#ee5d7b" fill-opacity="0.038"/><rect x="170" y="436" width="38" height="30" rx="3" fill="#ee5d7b" fill-opacity="0.038"/><rect x="220" y="436" width="38" height="30" rx="3" fill="#ee5d7b" fill-opacity="0.054"/><rect x="270" y="436" width="38" height="30" rx="3" fill="#ee5d7b" fill-opacity="0.038"/><rect x="320" y="436" width="38" height="30" rx="3" fill="#ee5d7b" fill-opacity="0.038"/><rect x="370" y="436" width="38" height="30" rx="3" fill="#ee5d7b" fill-opacity="0.054"/><rect x="420" y="436" width="38" height="30" rx="3" fill="#ee5d7b" fill-opacity="0.038"/><rect x="470" y="436" width="38" height="30" rx="3" fill="#ee5d7b" fill-opacity="0.038"/><rect x="520" y="436" width="38" height="30" rx="3" fill="#ee5d7b" fill-opacity="0.054"/><rect x="570" y="436" width="38" height="30" rx="3" fill="#ee5d7b" fill-opacity="0.038"/><rect x="620" y="436" width="38" height="30" rx="3" fill="#ee5d7b" fill-opacity="0.038"/><rect x="670" y="436" width="38" height="30" rx="3" fill="#ee5d7b" fill-opacity="0.054"/><rect x="720" y="436" width="38" height="30" rx="3" fill="#ee5d7b" fill-opacity="0.038"/><rect x="770" y="436" width="38" height="30" rx="3" fill="#ee5d7b" fill-opacity="0.038"/><rect x="820" y="436" width="38" height="30" rx="3" fill="#ee5d7b" fill-opacity="0.054"/><rect x="870" y="436" width="38" height="30" rx="3" fill="#ee5d7b" fill-opacity="0.038"/><rect x="920" y="436" width="38" height="30" rx="3" fill="#ee5d7b" fill-opacity="0.038"/><rect x="970" y="436" width="38" height="30" rx="3" fill="#ee5d7b" fill-opacity="0.054"/><rect x="1020" y="436" width="38" height="30" rx="3" fill="#ee5d7b" fill-opacity="0.038"/><rect x="1070" y="436" width="38" height="30" rx="3" fill="#ee5d7b" fill-opacity="0.038"/><rect x="1120" y="436" width="38" height="30" rx="3" fill="#ee5d7b" fill-opacity="0.054"/><rect x="1170" y="436" width="38" height="30" rx="3" fill="#ee5d7b" fill-opacity="0.038"/><rect x="20" y="496" width="38" height="30" rx="3" fill="#ee5d7b" fill-opacity="0.038"/><rect x="70" y="496" width="38" height="30" rx="3" fill="#ee5d7b" fill-opacity="0.038"/><rect x="120" y="496" width="38" height="30" rx="3" fill="#ee5d7b" fill-opacity="0.054"/><rect x="170" y="496" width="38" height="30" rx="3" fill="#ee5d7b" fill-opacity="0.038"/><rect x="220" y="496" width="38" height="30" rx="3" fill="#ee5d7b" fill-opacity="0.038"/><rect x="270" y="496" width="38" height="30" rx="3" fill="#ee5d7b" fill-opacity="0.054"/><rect x="320" y="496" width="38" height="30" rx="3" fill="#ee5d7b" fill-opacity="0.038"/><rect x="370" y="496" width="38" height="30" rx="3" fill="#ee5d7b" fill-opacity="0.038"/><rect x="420" y="496" width="38" height="30" rx="3" fill="#ee5d7b" fill-opacity="0.054"/><rect x="470" y="496" width="38" height="30" rx="3" fill="#ee5d7b" fill-opacity="0.038"/><rect x="520" y="496" width="38" height="30" rx="3" fill="#ee5d7b" fill-opacity="0.038"/><rect x="570" y="496" width="38" height="30" rx="3" fill="#ee5d7b" fill-opacity="0.054"/><rect x="620" y="496" width="38" height="30" rx="3" fill="#ee5d7b" fill-opacity="0.038"/><rect x="670" y="496" width="38" height="30" rx="3" fill="#ee5d7b" fill-opacity="0.038"/><rect x="720" y="496" width="38" height="30" rx="3" fill="#ee5d7b" fill-opacity="0.054"/><rect x="770" y="496" width="38" height="30" rx="3" fill="#ee5d7b" fill-opacity="0.038"/><rect x="820" y="496" width="38" height="30" rx="3" fill="#ee5d7b" fill-opacity="0.038"/><rect x="870" y="496" width="38" height="30" rx="3" fill="#ee5d7b" fill-opacity="0.054"/><rect x="920" y="496" width="38" height="30" rx="3" fill="#ee5d7b" fill-opacity="0.038"/><rect x="970" y="496" width="38" height="30" rx="3" fill="#ee5d7b" fill-opacity="0.038"/><rect x="1020" y="496" width="38" height="30" rx="3" fill="#ee5d7b" fill-opacity="0.054"/><rect x="1070" y="496" width="38" height="30" rx="3" fill="#ee5d7b" fill-opacity="0.038"/><rect x="1120" y="496" width="38" height="30" rx="3" fill="#ee5d7b" fill-opacity="0.038"/><rect x="1170" y="496" width="38" height="30" rx="3" fill="#ee5d7b" fill-opacity="0.054"/><rect x="20" y="556" width="38" height="30" rx="3" fill="#ee5d7b" fill-opacity="0.054"/><rect x="70" y="556" width="38" height="30" rx="3" fill="#ee5d7b" fill-opacity="0.038"/><rect x="120" y="556" width="38" height="30" rx="3" fill="#ee5d7b" fill-opacity="0.038"/><rect x="170" y="556" width="38" height="30" rx="3" fill="#ee5d7b" fill-opacity="0.054"/><rect x="220" y="556" width="38" height="30" rx="3" fill="#ee5d7b" fill-opacity="0.038"/><rect x="270" y="556" width="38" height="30" rx="3" fill="#ee5d7b" fill-opacity="0.038"/><rect x="320" y="556" width="38" height="30" rx="3" fill="#ee5d7b" fill-opacity="0.054"/><rect x="370" y="556" width="38" height="30" rx="3" fill="#ee5d7b" fill-opacity="0.038"/><rect x="420" y="556" width="38" height="30" rx="3" fill="#ee5d7b" fill-opacity="0.038"/><rect x="470" y="556" width="38" height="30" rx="3" fill="#ee5d7b" fill-opacity="0.054"/><rect x="520" y="556" width="38" height="30" rx="3" fill="#ee5d7b" fill-opacity="0.038"/><rect x="570" y="556" width="38" height="30" rx="3" fill="#ee5d7b" fill-opacity="0.038"/><rect x="620" y="556" width="38" height="30" rx="3" fill="#ee5d7b" fill-opacity="0.054"/><rect x="670" y="556" width="38" height="30" rx="3" fill="#ee5d7b" fill-opacity="0.038"/><rect x="720" y="556" width="38" height="30" rx="3" fill="#ee5d7b" fill-opacity="0.038"/><rect x="770" y="556" width="38" height="30" rx="3" fill="#ee5d7b" fill-opacity="0.054"/><rect x="820" y="556" width="38" height="30" rx="3" fill="#ee5d7b" fill-opacity="0.038"/><rect x="870" y="556" width="38" height="30" rx="3" fill="#ee5d7b" fill-opacity="0.038"/><rect x="920" y="556" width="38" height="30" rx="3" fill="#ee5d7b" fill-opacity="0.054"/><rect x="970" y="556" width="38" height="30" rx="3" fill="#ee5d7b" fill-opacity="0.038"/><rect x="1020" y="556" width="38" height="30" rx="3" fill="#ee5d7b" fill-opacity="0.038"/><rect x="1070" y="556" width="38" height="30" rx="3" fill="#ee5d7b" fill-opacity="0.054"/><rect x="1120" y="556" width="38" height="30" rx="3" fill="#ee5d7b" fill-opacity="0.038"/><rect x="1170" y="556" width="38" height="30" rx="3" fill="#ee5d7b" fill-opacity="0.038"/><rect x="20" y="616" width="38" height="30" rx="3" fill="#ee5d7b" fill-opacity="0.038"/><rect x="70" y="616" width="38" height="30" rx="3" fill="#ee5d7b" fill-opacity="0.054"/><rect x="120" y="616" width="38" height="30" rx="3" fill="#ee5d7b" fill-opacity="0.038"/><rect x="170" y="616" width="38" height="30" rx="3" fill="#ee5d7b" fill-opacity="0.038"/><rect x="220" y="616" width="38" height="30" rx="3" fill="#ee5d7b" fill-opacity="0.054"/><rect x="270" y="616" width="38" height="30" rx="3" fill="#ee5d7b" fill-opacity="0.038"/><rect x="320" y="616" width="38" height="30" rx="3" fill="#ee5d7b" fill-opacity="0.038"/><rect x="370" y="616" width="38" height="30" rx="3" fill="#ee5d7b" fill-opacity="0.054"/><rect x="420" y="616" width="38" height="30" rx="3" fill="#ee5d7b" fill-opacity="0.038"/><rect x="470" y="616" width="38" height="30" rx="3" fill="#ee5d7b" fill-opacity="0.038"/><rect x="520" y="616" width="38" height="30" rx="3" fill="#ee5d7b" fill-opacity="0.054"/><rect x="570" y="616" width="38" height="30" rx="3" fill="#ee5d7b" fill-opacity="0.038"/><rect x="620" y="616" width="38" height="30" rx="3" fill="#ee5d7b" fill-opacity="0.038"/><rect x="670" y="616" width="38" height="30" rx="3" fill="#ee5d7b" fill-opacity="0.054"/><rect x="720" y="616" width="38" height="30" rx="3" fill="#ee5d7b" fill-opacity="0.038"/><rect x="770" y="616" width="38" height="30" rx="3" fill="#ee5d7b" fill-opacity="0.038"/><rect x="820" y="616" width="38" height="30" rx="3" fill="#ee5d7b" fill-opacity="0.054"/><rect x="870" y="616" width="38" height="30" rx="3" fill="#ee5d7b" fill-opacity="0.038"/><rect x="920" y="616" width="38" height="30" rx="3" fill="#ee5d7b" fill-opacity="0.038"/><rect x="970" y="616" width="38" height="30" rx="3" fill="#ee5d7b" fill-opacity="0.054"/><rect x="1020" y="616" width="38" height="30" rx="3" fill="#ee5d7b" fill-opacity="0.038"/><rect x="1070" y="616" width="38" height="30" rx="3" fill="#ee5d7b" fill-opacity="0.038"/><rect x="1120" y="616" width="38" height="30" rx="3" fill="#ee5d7b" fill-opacity="0.054"/><rect x="1170" y="616" width="38" height="30" rx="3" fill="#ee5d7b" fill-opacity="0.038"/><rect x="20" y="676" width="38" height="30" rx="3" fill="#ee5d7b" fill-opacity="0.038"/><rect x="70" y="676" width="38" height="30" rx="3" fill="#ee5d7b" fill-opacity="0.038"/><rect x="120" y="676" width="38" height="30" rx="3" fill="#ee5d7b" fill-opacity="0.054"/><rect x="170" y="676" width="38" height="30" rx="3" fill="#ee5d7b" fill-opacity="0.038"/><rect x="220" y="676" width="38" height="30" rx="3" fill="#ee5d7b" fill-opacity="0.038"/><rect x="270" y="676" width="38" height="30" rx="3" fill="#ee5d7b" fill-opacity="0.054"/><rect x="320" y="676" width="38" height="30" rx="3" fill="#ee5d7b" fill-opacity="0.038"/><rect x="370" y="676" width="38" height="30" rx="3" fill="#ee5d7b" fill-opacity="0.038"/><rect x="420" y="676" width="38" height="30" rx="3" fill="#ee5d7b" fill-opacity="0.054"/><rect x="470" y="676" width="38" height="30" rx="3" fill="#ee5d7b" fill-opacity="0.038"/><rect x="520" y="676" width="38" height="30" rx="3" fill="#ee5d7b" fill-opacity="0.038"/><rect x="570" y="676" width="38" height="30" rx="3" fill="#ee5d7b" fill-opacity="0.054"/><rect x="620" y="676" width="38" height="30" rx="3" fill="#ee5d7b" fill-opacity="0.038"/><rect x="670" y="676" width="38" height="30" rx="3" fill="#ee5d7b" fill-opacity="0.038"/><rect x="720" y="676" width="38" height="30" rx="3" fill="#ee5d7b" fill-opacity="0.054"/><rect x="770" y="676" width="38" height="30" rx="3" fill="#ee5d7b" fill-opacity="0.038"/><rect x="820" y="676" width="38" height="30" rx="3" fill="#ee5d7b" fill-opacity="0.038"/><rect x="870" y="676" width="38" height="30" rx="3" fill="#ee5d7b" fill-opacity="0.054"/><rect x="920" y="676" width="38" height="30" rx="3" fill="#ee5d7b" fill-opacity="0.038"/><rect x="970" y="676" width="38" height="30" rx="3" fill="#ee5d7b" fill-opacity="0.038"/><rect x="1020" y="676" width="38" height="30" rx="3" fill="#ee5d7b" fill-opacity="0.054"/><rect x="1070" y="676" width="38" height="30" rx="3" fill="#ee5d7b" fill-opacity="0.038"/><rect x="1120" y="676" width="38" height="30" rx="3" fill="#ee5d7b" fill-opacity="0.038"/><rect x="1170" y="676" width="38" height="30" rx="3" fill="#ee5d7b" fill-opacity="0.054"/><rect x="230" y="212" width="740" height="300" rx="16" fill="#170e13" fill-opacity="0.74" stroke="#ee5d7b" stroke-opacity="0.34" stroke-width="1.5"/><rect x="290" y="272" width="280" height="180" rx="10" fill="#ee5d7b" fill-opacity="0.05" stroke="#ee5d7b" stroke-opacity="0.55" stroke-width="1.6"/><rect x="324" y="295" width="212" height="134" rx="8" fill="#ee5d7b" fill-opacity="0.08" stroke="#ee5d7b" stroke-opacity="0.46" stroke-width="1.4"/><rect x="358" y="318" width="144" height="88" rx="6" fill="#ee5d7b" fill-opacity="0.11" stroke="#ee5d7b" stroke-opacity="0.38" stroke-width="1.3"/><rect x="392" y="341" width="76" height="42" rx="4" fill="#ee5d7b" fill-opacity="0.14" stroke="#ee5d7b" stroke-opacity="0.3" stroke-width="1.2"/><line x1="302" y1="362" x2="318" y2="362" stroke="#ee5d7b" stroke-opacity="0.42" stroke-width="1.4"/><path d="M318,362 l-10,-5 l0,10 z" fill="#ee5d7b" fill-opacity="0.55"/><line x1="336" y1="362" x2="352" y2="362" stroke="#ee5d7b" stroke-opacity="0.42" stroke-width="1.4"/><path d="M352,362 l-10,-5 l0,10 z" fill="#ee5d7b" fill-opacity="0.55"/><line x1="370" y1="362" x2="386" y2="362" stroke="#ee5d7b" stroke-opacity="0.42" stroke-width="1.4"/><path d="M386,362 l-10,-5 l0,10 z" fill="#ee5d7b" fill-opacity="0.55"/><circle cx="430" cy="362" r="5" fill="#ee5d7b" fill-opacity="0.75"/><circle cx="770" cy="268" r="16" fill="#ee5d7b" fill-opacity="0.2" stroke="#ee5d7b" stroke-opacity="0.62" stroke-width="1.4"/><circle cx="706" cy="348" r="14" fill="#ee5d7b" fill-opacity="0.16" stroke="#ee5d7b" stroke-opacity="0.5" stroke-width="1.4"/><line x1="770" y1="284" x2="706" y2="332" stroke="#ee5d7b" stroke-opacity="0.38" stroke-width="1.3"/><circle cx="834" cy="348" r="14" fill="#ee5d7b" fill-opacity="0.16" stroke="#ee5d7b" stroke-opacity="0.5" stroke-width="1.4"/><line x1="770" y1="284" x2="834" y2="332" stroke="#ee5d7b" stroke-opacity="0.38" stroke-width="1.3"/><circle cx="674" cy="428" r="12" fill="#ee5d7b" fill-opacity="0.12000000000000001" stroke="#ee5d7b" stroke-opacity="0.38" stroke-width="1.4"/><line x1="706" y1="362" x2="674" y2="414" stroke="#ee5d7b" stroke-opacity="0.38" stroke-width="1.3"/><circle cx="738" cy="428" r="12" fill="#ee5d7b" fill-opacity="0.12000000000000001" stroke="#ee5d7b" stroke-opacity="0.38" stroke-width="1.4"/><line x1="706" y1="362" x2="738" y2="414" stroke="#ee5d7b" stroke-opacity="0.38" stroke-width="1.3"/><circle cx="802" cy="428" r="12" fill="#ee5d7b" fill-opacity="0.12000000000000001" stroke="#ee5d7b" stroke-opacity="0.38" stroke-width="1.4"/><line x1="834" y1="362" x2="802" y2="414" stroke="#ee5d7b" stroke-opacity="0.38" stroke-width="1.3"/><circle cx="866" cy="428" r="12" fill="#ee5d7b" fill-opacity="0.12000000000000001" stroke="#ee5d7b" stroke-opacity="0.38" stroke-width="1.4"/><line x1="834" y1="362" x2="866" y2="414" stroke="#ee5d7b" stroke-opacity="0.38" stroke-width="1.3"/><rect x="664" y="474" width="34" height="10" rx="2" fill="#ee5d7b" fill-opacity="0.4"/><rect x="706" y="474" width="34" height="10" rx="2" fill="#ee5d7b" fill-opacity="0.34"/><rect x="748" y="474" width="34" height="10" rx="2" fill="#ee5d7b" fill-opacity="0.28"/><rect x="790" y="474" width="34" height="10" rx="2" fill="#ee5d7b" fill-opacity="0.22000000000000003"/><rect x="832" y="474" width="34" height="10" rx="2" fill="#ee5d7b" fill-opacity="0.16000000000000003"/></svg>