<svg xmlns="http://www.w3.org/2000/svg" viewBox="0 0 1200 720" width="1200" height="720"><defs><linearGradient id="g" x1="0" y1="0" x2="1" y2="1"><stop offset="0" stop-color="#101a26"/><stop offset="1" stop-color="#222c38"/></linearGradient></defs><rect width="1200" height="720" fill="url(#g)"/><polygon points="-11,17 153,-24 102,117" fill="#5b8fc7" fill-opacity="0.07" stroke="#7fb3e0" stroke-opacity="0.30" stroke-width="1"/><polygon points="-11,17 102,117 -28,124" fill="#5b8fc7" fill-opacity="0.04" stroke="#7fb3e0" stroke-opacity="0.30" stroke-width="1"/><polygon points="153,-24 246,16 208,118" fill="#5b8fc7" fill-opacity="0.09" stroke="#7fb3e0" stroke-opacity="0.30" stroke-width="1"/><polygon points="153,-24 208,118 102,117" fill="#5b8fc7" fill-opacity="0.10" stroke="#7fb3e0" stroke-opacity="0.30" stroke-width="1"/><polygon points="246,16 359,10 373,80" fill="#5b8fc7" fill-opacity="0.08" stroke="#7fb3e0" stroke-opacity="0.30" stroke-width="1"/><polygon points="246,16 373,80 208,118" fill="#5b8fc7" fill-opacity="0.06" stroke="#7fb3e0" stroke-opacity="0.30" stroke-width="1"/><polygon points="359,10 492,26 474,78" fill="#5b8fc7" fill-opacity="0.14" stroke="#7fb3e0" stroke-opacity="0.30" stroke-width="1"/><polygon points="359,10 474,78 373,80" fill="#5b8fc7" fill-opacity="0.13" stroke="#7fb3e0" stroke-opacity="0.30" stroke-width="1"/><polygon points="492,26 612,9 604,86" fill="#5b8fc7" fill-opacity="0.07" stroke="#7fb3e0" stroke-opacity="0.30" stroke-width="1"/><polygon points="492,26 604,86 474,78" fill="#5b8fc7" fill-opacity="0.14" stroke="#7fb3e0" stroke-opacity="0.30" stroke-width="1"/><polygon points="612,9 740,2 691,108" fill="#5b8fc7" fill-opacity="0.09" stroke="#7fb3e0" stroke-opacity="0.30" stroke-width="1"/><polygon points="612,9 691,108 604,86" fill="#5b8fc7" fill-opacity="0.14" stroke="#7fb3e0" stroke-opacity="0.30" stroke-width="1"/><polygon points="740,2 816,5 845,102" fill="#5b8fc7" fill-opacity="0.03" stroke="#7fb3e0" stroke-opacity="0.30" stroke-width="1"/><polygon points="740,2 845,102 691,108" fill="#5b8fc7" fill-opacity="0.05" stroke="#7fb3e0" stroke-opacity="0.30" stroke-width="1"/><polygon points="816,5 984,-12 970,97" fill="#5b8fc7" fill-opacity="0.11" stroke="#7fb3e0" stroke-opacity="0.30" stroke-width="1"/><polygon points="816,5 970,97 845,102" fill="#5b8fc7" fill-opacity="0.14" stroke="#7fb3e0" stroke-opacity="0.30" stroke-width="1"/><polygon points="984,-12 1112,-10 1109,111" fill="#5b8fc7" fill-opacity="0.12" stroke="#7fb3e0" stroke-opacity="0.30" stroke-width="1"/><polygon points="984,-12 1109,111 970,97" fill="#5b8fc7" fill-opacity="0.15" stroke="#7fb3e0" stroke-opacity="0.30" stroke-width="1"/><polygon points="1112,-10 1226,21 1205,109" fill="#5b8fc7" fill-opacity="0.08" stroke="#7fb3e0" stroke-opacity="0.30" stroke-width="1"/><polygon points="1112,-10 1205,109 1109,111" fill="#5b8fc7" fill-opacity="0.10" stroke="#7fb3e0" stroke-opacity="0.30" stroke-width="1"/><polygon points="-28,124 102,117 123,206" fill="#5b8fc7" fill-opacity="0.06" stroke="#7fb3e0" stroke-opacity="0.30" stroke-width="1"/><polygon points="-28,124 123,206 -30,227" fill="#5b8fc7" fill-opacity="0.05" stroke="#7fb3e0" stroke-opacity="0.30" stroke-width="1"/><polygon points="102,117 208,118 268,193" fill="#5b8fc7" fill-opacity="0.14" stroke="#7fb3e0" stroke-opacity="0.30" stroke-width="1"/><polygon points="102,117 268,193 123,206" fill="#5b8fc7" fill-opacity="0.08" stroke="#7fb3e0" stroke-opacity="0.30" stroke-width="1"/><polygon points="208,118 373,80 330,214" fill="#5b8fc7" fill-opacity="0.15" stroke="#7fb3e0" stroke-opacity="0.30" stroke-width="1"/><polygon points="208,118 330,214 268,193" fill="#5b8fc7" fill-opacity="0.06" stroke="#7fb3e0" stroke-opacity="0.30" stroke-width="1"/><polygon points="373,80 474,78 499,227" fill="#5b8fc7" fill-opacity="0.05" stroke="#7fb3e0" stroke-opacity="0.30" stroke-width="1"/><polygon points="373,80 499,227 330,214" fill="#5b8fc7" fill-opacity="0.07" stroke="#7fb3e0" stroke-opacity="0.30" stroke-width="1"/><polygon points="474,78 604,86 626,213" fill="#5b8fc7" fill-opacity="0.09" stroke="#7fb3e0" stroke-opacity="0.30" stroke-width="1"/><polygon points="474,78 626,213 499,227" fill="#5b8fc7" fill-opacity="0.05" stroke="#7fb3e0" stroke-opacity="0.30" stroke-width="1"/><polygon points="604,86 691,108 721,191" fill="#5b8fc7" fill-opacity="0.08" stroke="#7fb3e0" stroke-opacity="0.30" stroke-width="1"/><polygon points="604,86 721,191 626,213" fill="#5b8fc7" fill-opacity="0.08" stroke="#7fb3e0" stroke-opacity="0.30" stroke-width="1"/><polygon points="691,108 845,102 847,207" fill="#5b8fc7" fill-opacity="0.15" stroke="#7fb3e0" stroke-opacity="0.30" stroke-width="1"/><polygon points="691,108 847,207 721,191" fill="#5b8fc7" fill-opacity="0.13" stroke="#7fb3e0" stroke-opacity="0.30" stroke-width="1"/><polygon points="845,102 970,97 978,180" fill="#5b8fc7" fill-opacity="0.11" stroke="#7fb3e0" stroke-opacity="0.30" stroke-width="1"/><polygon points="845,102 978,180 847,207" fill="#5b8fc7" fill-opacity="0.08" stroke="#7fb3e0" stroke-opacity="0.30" stroke-width="1"/><polygon points="970,97 1109,111 1085,211" fill="#5b8fc7" fill-opacity="0.09" stroke="#7fb3e0" stroke-opacity="0.30" stroke-width="1"/><polygon points="970,97 1085,211 978,180" fill="#5b8fc7" fill-opacity="0.04" stroke="#7fb3e0" stroke-opacity="0.30" stroke-width="1"/><polygon points="1109,111 1205,109 1171,216" fill="#5b8fc7" fill-opacity="0.14" stroke="#7fb3e0" stroke-opacity="0.30" stroke-width="1"/><polygon points="1109,111 1171,216 1085,211" fill="#5b8fc7" fill-opacity="0.15" stroke="#7fb3e0" stroke-opacity="0.30" stroke-width="1"/><polygon points="-30,227 123,206 90,292" fill="#5b8fc7" fill-opacity="0.10" stroke="#7fb3e0" stroke-opacity="0.30" stroke-width="1"/><polygon points="-30,227 90,292 26,300" fill="#5b8fc7" fill-opacity="0.05" stroke="#7fb3e0" stroke-opacity="0.30" stroke-width="1"/><polygon points="123,206 268,193 211,316" fill="#5b8fc7" fill-opacity="0.09" stroke="#7fb3e0" stroke-opacity="0.30" stroke-width="1"/><polygon points="123,206 211,316 90,292" fill="#5b8fc7" fill-opacity="0.07" stroke="#7fb3e0" stroke-opacity="0.30" stroke-width="1"/><polygon points="268,193 330,214 386,314" fill="#5b8fc7" fill-opacity="0.11" stroke="#7fb3e0" stroke-opacity="0.30" stroke-width="1"/><polygon points="268,193 386,314 211,316" fill="#5b8fc7" fill-opacity="0.11" stroke="#7fb3e0" stroke-opacity="0.30" stroke-width="1"/><polygon points="330,214 499,227 486,333" fill="#5b8fc7" fill-opacity="0.12" stroke="#7fb3e0" stroke-opacity="0.30" stroke-width="1"/><polygon points="330,214 486,333 386,314" fill="#5b8fc7" fill-opacity="0.04" stroke="#7fb3e0" stroke-opacity="0.30" stroke-width="1"/><polygon points="499,227 626,213 610,291" fill="#5b8fc7" fill-opacity="0.13" stroke="#7fb3e0" stroke-opacity="0.30" stroke-width="1"/><polygon points="499,227 610,291 486,333" fill="#5b8fc7" fill-opacity="0.10" stroke="#7fb3e0" stroke-opacity="0.30" stroke-width="1"/><polygon points="626,213 721,191 708,317" fill="#5b8fc7" fill-opacity="0.07" stroke="#7fb3e0" stroke-opacity="0.30" stroke-width="1"/><polygon points="626,213 708,317 610,291" fill="#5b8fc7" fill-opacity="0.04" stroke="#7fb3e0" stroke-opacity="0.30" stroke-width="1"/><polygon points="721,191 847,207 831,317" fill="#5b8fc7" fill-opacity="0.08" stroke="#7fb3e0" stroke-opacity="0.30" stroke-width="1"/><polygon points="721,191 831,317 708,317" fill="#5b8fc7" fill-opacity="0.11" stroke="#7fb3e0" stroke-opacity="0.30" stroke-width="1"/><polygon points="847,207 978,180 983,296" fill="#5b8fc7" fill-opacity="0.12" stroke="#7fb3e0" stroke-opacity="0.30" stroke-width="1"/><polygon points="847,207 983,296 831,317" fill="#5b8fc7" fill-opacity="0.15" stroke="#7fb3e0" stroke-opacity="0.30" stroke-width="1"/><polygon points="978,180 1085,211 1083,284" fill="#5b8fc7" fill-opacity="0.04" stroke="#7fb3e0" stroke-opacity="0.30" stroke-width="1"/><polygon points="978,180 1083,284 983,296" fill="#5b8fc7" fill-opacity="0.15" stroke="#7fb3e0" stroke-opacity="0.30" stroke-width="1"/><polygon points="1085,211 1171,216 1212,317" fill="#5b8fc7" fill-opacity="0.06" stroke="#7fb3e0" stroke-opacity="0.30" stroke-width="1"/><polygon points="1085,211 1212,317 1083,284" fill="#5b8fc7" fill-opacity="0.03" stroke="#7fb3e0" stroke-opacity="0.30" stroke-width="1"/><polygon points="26,300 90,292 104,392" fill="#5b8fc7" fill-opacity="0.11" stroke="#7fb3e0" stroke-opacity="0.30" stroke-width="1"/><polygon points="26,300 104,392 18,412" fill="#5b8fc7" fill-opacity="0.14" stroke="#7fb3e0" stroke-opacity="0.30" stroke-width="1"/><polygon points="90,292 211,316 255,404" fill="#5b8fc7" fill-opacity="0.07" stroke="#7fb3e0" stroke-opacity="0.30" stroke-width="1"/><polygon points="90,292 255,404 104,392" fill="#5b8fc7" fill-opacity="0.10" stroke="#7fb3e0" stroke-opacity="0.30" stroke-width="1"/><polygon points="211,316 386,314 338,390" fill="#5b8fc7" fill-opacity="0.14" stroke="#7fb3e0" stroke-opacity="0.30" stroke-width="1"/><polygon points="211,316 338,390 255,404" fill="#5b8fc7" fill-opacity="0.15" stroke="#7fb3e0" stroke-opacity="0.30" stroke-width="1"/><polygon points="386,314 486,333 470,409" fill="#5b8fc7" fill-opacity="0.12" stroke="#7fb3e0" stroke-opacity="0.30" stroke-width="1"/><polygon points="386,314 470,409 338,390" fill="#5b8fc7" fill-opacity="0.11" stroke="#7fb3e0" stroke-opacity="0.30" stroke-width="1"/><polygon points="486,333 610,291 631,410" fill="#5b8fc7" fill-opacity="0.13" stroke="#7fb3e0" stroke-opacity="0.30" stroke-width="1"/><polygon points="486,333 631,410 470,409" fill="#5b8fc7" fill-opacity="0.10" stroke="#7fb3e0" stroke-opacity="0.30" stroke-width="1"/><polygon points="610,291 708,317 747,407" fill="#5b8fc7" fill-opacity="0.09" stroke="#7fb3e0" stroke-opacity="0.30" stroke-width="1"/><polygon points="610,291 747,407 631,410" fill="#5b8fc7" fill-opacity="0.05" stroke="#7fb3e0" stroke-opacity="0.30" stroke-width="1"/><polygon points="708,317 831,317 813,403" fill="#5b8fc7" fill-opacity="0.10" stroke="#7fb3e0" stroke-opacity="0.30" stroke-width="1"/><polygon points="708,317 813,403 747,407" fill="#5b8fc7" fill-opacity="0.11" stroke="#7fb3e0" stroke-opacity="0.30" stroke-width="1"/><polygon points="831,317 983,296 963,394" fill="#5b8fc7" fill-opacity="0.08" stroke="#7fb3e0" stroke-opacity="0.30" stroke-width="1"/><polygon points="831,317 963,394 813,403" fill="#5b8fc7" fill-opacity="0.04" stroke="#7fb3e0" stroke-opacity="0.30" stroke-width="1"/><polygon points="983,296 1083,284 1108,432" fill="#5b8fc7" fill-opacity="0.04" stroke="#7fb3e0" stroke-opacity="0.30" stroke-width="1"/><polygon points="983,296 1108,432 963,394" fill="#5b8fc7" fill-opacity="0.09" stroke="#7fb3e0" stroke-opacity="0.30" stroke-width="1"/><polygon points="1083,284 1212,317 1196,423" fill="#5b8fc7" fill-opacity="0.04" stroke="#7fb3e0" stroke-opacity="0.30" stroke-width="1"/><polygon points="1083,284 1196,423 1108,432" fill="#5b8fc7" fill-opacity="0.08" stroke="#7fb3e0" stroke-opacity="0.30" stroke-width="1"/><polygon points="18,412 104,392 128,521" fill="#5b8fc7" fill-opacity="0.07" stroke="#7fb3e0" stroke-opacity="0.30" stroke-width="1"/><polygon points="18,412 128,521 -10,508" fill="#5b8fc7" fill-opacity="0.08" stroke="#7fb3e0" stroke-opacity="0.30" stroke-width="1"/><polygon points="104,392 255,404 237,535" fill="#5b8fc7" fill-opacity="0.15" stroke="#7fb3e0" stroke-opacity="0.30" stroke-width="1"/><polygon points="104,392 237,535 128,521" fill="#5b8fc7" fill-opacity="0.07" stroke="#7fb3e0" stroke-opacity="0.30" stroke-width="1"/><polygon points="255,404 338,390 371,491" fill="#5b8fc7" fill-opacity="0.16" stroke="#7fb3e0" stroke-opacity="0.30" stroke-width="1"/><polygon points="255,404 371,491 237,535" fill="#5b8fc7" fill-opacity="0.10" stroke="#7fb3e0" stroke-opacity="0.30" stroke-width="1"/><polygon points="338,390 470,409 499,517" fill="#5b8fc7" fill-opacity="0.07" stroke="#7fb3e0" stroke-opacity="0.30" stroke-width="1"/><polygon points="338,390 499,517 371,491" fill="#5b8fc7" fill-opacity="0.10" stroke="#7fb3e0" stroke-opacity="0.30" stroke-width="1"/><polygon points="470,409 631,410 593,533" fill="#5b8fc7" fill-opacity="0.09" stroke="#7fb3e0" stroke-opacity="0.30" stroke-width="1"/><polygon points="470,409 593,533 499,517" fill="#5b8fc7" fill-opacity="0.11" stroke="#7fb3e0" stroke-opacity="0.30" stroke-width="1"/><polygon points="631,410 747,407 751,536" fill="#5b8fc7" fill-opacity="0.07" stroke="#7fb3e0" stroke-opacity="0.30" stroke-width="1"/><polygon points="631,410 751,536 593,533" fill="#5b8fc7" fill-opacity="0.04" stroke="#7fb3e0" stroke-opacity="0.30" stroke-width="1"/><polygon points="747,407 813,403 810,489" fill="#5b8fc7" fill-opacity="0.14" stroke="#7fb3e0" stroke-opacity="0.30" stroke-width="1"/><polygon points="747,407 810,489 751,536" fill="#5b8fc7" fill-opacity="0.09" stroke="#7fb3e0" stroke-opacity="0.30" stroke-width="1"/><polygon points="813,403 963,394 940,530" fill="#5b8fc7" fill-opacity="0.14" stroke="#7fb3e0" stroke-opacity="0.30" stroke-width="1"/><polygon points="813,403 940,530 810,489" fill="#5b8fc7" fill-opacity="0.08" stroke="#7fb3e0" stroke-opacity="0.30" stroke-width="1"/><polygon points="963,394 1108,432 1057,502" fill="#5b8fc7" fill-opacity="0.06" stroke="#7fb3e0" stroke-opacity="0.30" stroke-width="1"/><polygon points="963,394 1057,502 940,530" fill="#5b8fc7" fill-opacity="0.07" stroke="#7fb3e0" stroke-opacity="0.30" stroke-width="1"/><polygon points="1108,432 1196,423 1193,525" fill="#5b8fc7" fill-opacity="0.08" stroke="#7fb3e0" stroke-opacity="0.30" stroke-width="1"/><polygon points="1108,432 1193,525 1057,502" fill="#5b8fc7" fill-opacity="0.11" stroke="#7fb3e0" stroke-opacity="0.30" stroke-width="1"/><polygon points="-10,508 128,521 111,597" fill="#5b8fc7" fill-opacity="0.07" stroke="#7fb3e0" stroke-opacity="0.30" stroke-width="1"/><polygon points="-10,508 111,597 -8,608" fill="#5b8fc7" fill-opacity="0.16" stroke="#7fb3e0" stroke-opacity="0.30" stroke-width="1"/><polygon points="128,521 237,535 214,600" fill="#5b8fc7" fill-opacity="0.11" stroke="#7fb3e0" stroke-opacity="0.30" stroke-width="1"/><polygon points="128,521 214,600 111,597" fill="#5b8fc7" fill-opacity="0.04" stroke="#7fb3e0" stroke-opacity="0.30" stroke-width="1"/><polygon points="237,535 371,491 348,617" fill="#5b8fc7" fill-opacity="0.11" stroke="#7fb3e0" stroke-opacity="0.30" stroke-width="1"/><polygon points="237,535 348,617 214,600" fill="#5b8fc7" fill-opacity="0.14" stroke="#7fb3e0" stroke-opacity="0.30" stroke-width="1"/><polygon points="371,491 499,517 457,617" fill="#5b8fc7" fill-opacity="0.10" stroke="#7fb3e0" stroke-opacity="0.30" stroke-width="1"/><polygon points="371,491 457,617 348,617" fill="#5b8fc7" fill-opacity="0.04" stroke="#7fb3e0" stroke-opacity="0.30" stroke-width="1"/><polygon points="499,517 593,533 634,610" fill="#5b8fc7" fill-opacity="0.05" stroke="#7fb3e0" stroke-opacity="0.30" stroke-width="1"/><polygon points="499,517 634,610 457,617" fill="#5b8fc7" fill-opacity="0.14" stroke="#7fb3e0" stroke-opacity="0.30" stroke-width="1"/><polygon points="593,533 751,536 693,615" fill="#5b8fc7" fill-opacity="0.10" stroke="#7fb3e0" stroke-opacity="0.30" stroke-width="1"/><polygon points="593,533 693,615 634,610" fill="#5b8fc7" fill-opacity="0.12" stroke="#7fb3e0" stroke-opacity="0.30" stroke-width="1"/><polygon points="751,536 810,489 824,632" fill="#5b8fc7" fill-opacity="0.16" stroke="#7fb3e0" stroke-opacity="0.30" stroke-width="1"/><polygon points="751,536 824,632 693,615" fill="#5b8fc7" fill-opacity="0.12" stroke="#7fb3e0" stroke-opacity="0.30" stroke-width="1"/><polygon points="810,489 940,530 927,625" fill="#5b8fc7" fill-opacity="0.03" stroke="#7fb3e0" stroke-opacity="0.30" stroke-width="1"/><polygon points="810,489 927,625 824,632" fill="#5b8fc7" fill-opacity="0.07" stroke="#7fb3e0" stroke-opacity="0.30" stroke-width="1"/><polygon points="940,530 1057,502 1106,622" fill="#5b8fc7" fill-opacity="0.10" stroke="#7fb3e0" stroke-opacity="0.30" stroke-width="1"/><polygon points="940,530 1106,622 927,625" fill="#5b8fc7" fill-opacity="0.13" stroke="#7fb3e0" stroke-opacity="0.30" stroke-width="1"/><polygon points="1057,502 1193,525 1222,609" fill="#5b8fc7" fill-opacity="0.14" stroke="#7fb3e0" stroke-opacity="0.30" stroke-width="1"/><polygon points="1057,502 1222,609 1106,622" fill="#5b8fc7" fill-opacity="0.07" stroke="#7fb3e0" stroke-opacity="0.30" stroke-width="1"/><polygon points="-8,608 111,597 88,734" fill="#5b8fc7" fill-opacity="0.07" stroke="#7fb3e0" stroke-opacity="0.30" stroke-width="1"/><polygon points="-8,608 88,734 14,704" fill="#5b8fc7" fill-opacity="0.03" stroke="#7fb3e0" stroke-opacity="0.30" stroke-width="1"/><polygon points="111,597 214,600 234,733" fill="#5b8fc7" fill-opacity="0.10" stroke="#7fb3e0" stroke-opacity="0.30" stroke-width="1"/><polygon points="111,597 234,733 88,734" fill="#5b8fc7" fill-opacity="0.13" stroke="#7fb3e0" stroke-opacity="0.30" stroke-width="1"/><polygon points="214,600 348,617 361,745" fill="#5b8fc7" fill-opacity="0.14" stroke="#7fb3e0" stroke-opacity="0.30" stroke-width="1"/><polygon points="214,600 361,745 234,733" fill="#5b8fc7" fill-opacity="0.06" stroke="#7fb3e0" stroke-opacity="0.30" stroke-width="1"/><polygon points="348,617 457,617 459,738" fill="#5b8fc7" fill-opacity="0.06" stroke="#7fb3e0" stroke-opacity="0.30" stroke-width="1"/><polygon points="348,617 459,738 361,745" fill="#5b8fc7" fill-opacity="0.14" stroke="#7fb3e0" stroke-opacity="0.30" stroke-width="1"/><polygon points="457,617 634,610 620,715" fill="#5b8fc7" fill-opacity="0.07" stroke="#7fb3e0" stroke-opacity="0.30" stroke-width="1"/><polygon points="457,617 620,715 459,738" fill="#5b8fc7" fill-opacity="0.07" stroke="#7fb3e0" stroke-opacity="0.30" stroke-width="1"/><polygon points="634,610 693,615 742,698" fill="#5b8fc7" fill-opacity="0.07" stroke="#7fb3e0" stroke-opacity="0.30" stroke-width="1"/><polygon points="634,610 742,698 620,715" fill="#5b8fc7" fill-opacity="0.08" stroke="#7fb3e0" stroke-opacity="0.30" stroke-width="1"/><polygon points="693,615 824,632 855,709" fill="#5b8fc7" fill-opacity="0.06" stroke="#7fb3e0" stroke-opacity="0.30" stroke-width="1"/><polygon points="693,615 855,709 742,698" fill="#5b8fc7" fill-opacity="0.12" stroke="#7fb3e0" stroke-opacity="0.30" stroke-width="1"/><polygon points="824,632 927,625 950,705" fill="#5b8fc7" fill-opacity="0.07" stroke="#7fb3e0" stroke-opacity="0.30" stroke-width="1"/><polygon points="824,632 950,705 855,709" fill="#5b8fc7" fill-opacity="0.10" stroke="#7fb3e0" stroke-opacity="0.30" stroke-width="1"/><polygon points="927,625 1106,622 1069,708" fill="#5b8fc7" fill-opacity="0.10" stroke="#7fb3e0" stroke-opacity="0.30" stroke-width="1"/><polygon points="927,625 1069,708 950,705" fill="#5b8fc7" fill-opacity="0.10" stroke="#7fb3e0" stroke-opacity="0.30" stroke-width="1"/><polygon points="1106,622 1222,609 1178,731" fill="#5b8fc7" fill-opacity="0.13" stroke="#7fb3e0" stroke-opacity="0.30" stroke-width="1"/><polygon points="1106,622 1178,731 1069,708" fill="#5b8fc7" fill-opacity="0.15" stroke="#7fb3e0" stroke-opacity="0.30" stroke-width="1"/><circle cx="102" cy="117" r="5" fill="#e95978" fill-opacity="0.85"/><circle cx="102" cy="117" r="5" fill="#e95978" fill-opacity="0.85"/><circle cx="123" cy="206" r="5" fill="#e95978" fill-opacity="0.85"/><circle cx="610" cy="291" r="5" fill="#e95978" fill-opacity="0.85"/><text x="78" y="632" fill="#fff" fill-opacity=".9" font-family="system-ui, sans-serif" font-size="46" font-weight="700" letter-spacing="6">NOIMPTY</text></svg>