<svg xmlns="http://www.w3.org/2000/svg" viewBox="0 0 1200 720" width="1200" height="720"><defs><linearGradient id="g" x1="0" y1="0" x2="1" y2="1"><stop offset="0" stop-color="#1b1408"/><stop offset="1" stop-color="#2b2416"/></linearGradient></defs><rect width="1200" height="720" fill="url(#g)"/><rect x="30" y="34" width="96" height="12" rx="2" fill="#f0be50" fill-opacity="0.06"/><rect x="140" y="34" width="26" height="12" rx="2" fill="#f0be50" fill-opacity="0.08"/><rect x="328" y="34" width="54" height="12" rx="2" fill="#f0be50" fill-opacity="0.05"/><rect x="422" y="34" width="40" height="12" rx="2" fill="#f0be50" fill-opacity="0.06"/><rect x="542" y="34" width="96" height="12" rx="2" fill="#f0be50" fill-opacity="0.04"/><rect x="718" y="34" width="96" height="12" rx="2" fill="#f0be50" fill-opacity="0.08"/><rect x="828" y="34" width="96" height="12" rx="2" fill="#f0be50" fill-opacity="0.09"/><rect x="1032" y="34" width="68" height="12" rx="2" fill="#f0be50" fill-opacity="0.06"/><rect x="1114" y="34" width="40" height="12" rx="2" fill="#f0be50" fill-opacity="0.09"/><rect x="136" y="84" width="40" height="12" rx="2" fill="#f0be50" fill-opacity="0.05"/><rect x="216" y="84" width="40" height="12" rx="2" fill="#f0be50" fill-opacity="0.08"/><rect x="336" y="84" width="26" height="12" rx="2" fill="#f0be50" fill-opacity="0.04"/><rect x="442" y="84" width="68" height="12" rx="2" fill="#f0be50" fill-opacity="0.07"/><rect x="524" y="84" width="26" height="12" rx="2" fill="#f0be50" fill-opacity="0.08"/><rect x="630" y="84" width="40" height="12" rx="2" fill="#f0be50" fill-opacity="0.08"/><rect x="684" y="84" width="54" height="12" rx="2" fill="#f0be50" fill-opacity="0.06"/><rect x="778" y="84" width="40" height="12" rx="2" fill="#f0be50" fill-opacity="0.04"/><rect x="898" y="84" width="26" height="12" rx="2" fill="#f0be50" fill-opacity="0.04"/><rect x="938" y="84" width="54" height="12" rx="2" fill="#f0be50" fill-opacity="0.08"/><rect x="1072" y="84" width="96" height="12" rx="2" fill="#f0be50" fill-opacity="0.06"/><rect x="30" y="134" width="68" height="12" rx="2" fill="#f0be50" fill-opacity="0.08"/><rect x="138" y="134" width="26" height="12" rx="2" fill="#f0be50" fill-opacity="0.07"/><rect x="244" y="134" width="26" height="12" rx="2" fill="#f0be50" fill-opacity="0.08"/><rect x="310" y="134" width="68" height="12" rx="2" fill="#f0be50" fill-opacity="0.06"/><rect x="392" y="134" width="96" height="12" rx="2" fill="#f0be50" fill-opacity="0.05"/><rect x="528" y="134" width="26" height="12" rx="2" fill="#f0be50" fill-opacity="0.08"/><rect x="568" y="134" width="68" height="12" rx="2" fill="#f0be50" fill-opacity="0.09"/><rect x="650" y="134" width="26" height="12" rx="2" fill="#f0be50" fill-opacity="0.03"/><rect x="690" y="134" width="96" height="12" rx="2" fill="#f0be50" fill-opacity="0.04"/><rect x="800" y="134" width="96" height="12" rx="2" fill="#f0be50" fill-opacity="0.07"/><rect x="1018" y="134" width="96" height="12" rx="2" fill="#f0be50" fill-opacity="0.07"/><rect x="30" y="184" width="68" height="12" rx="2" fill="#f0be50" fill-opacity="0.08"/><rect x="138" y="184" width="68" height="12" rx="2" fill="#f0be50" fill-opacity="0.09"/><rect x="246" y="184" width="54" height="12" rx="2" fill="#f0be50" fill-opacity="0.04"/><rect x="380" y="184" width="68" height="12" rx="2" fill="#f0be50" fill-opacity="0.05"/><rect x="544" y="184" width="54" height="12" rx="2" fill="#f0be50" fill-opacity="0.07"/><rect x="638" y="184" width="26" height="12" rx="2" fill="#f0be50" fill-opacity="0.07"/><rect x="744" y="184" width="26" height="12" rx="2" fill="#f0be50" fill-opacity="0.05"/><rect x="784" y="184" width="68" height="12" rx="2" fill="#f0be50" fill-opacity="0.03"/><rect x="986" y="184" width="26" height="12" rx="2" fill="#f0be50" fill-opacity="0.09"/><rect x="1092" y="184" width="68" height="12" rx="2" fill="#f0be50" fill-opacity="0.04"/><rect x="30" y="234" width="54" height="12" rx="2" fill="#f0be50" fill-opacity="0.04"/><rect x="98" y="234" width="96" height="12" rx="2" fill="#f0be50" fill-opacity="0.03"/><rect x="208" y="234" width="26" height="12" rx="2" fill="#f0be50" fill-opacity="0.06"/><rect x="274" y="234" width="26" height="12" rx="2" fill="#f0be50" fill-opacity="0.08"/><rect x="380" y="234" width="40" height="12" rx="2" fill="#f0be50" fill-opacity="0.03"/><rect x="434" y="234" width="96" height="12" rx="2" fill="#f0be50" fill-opacity="0.05"/><rect x="570" y="234" width="68" height="12" rx="2" fill="#f0be50" fill-opacity="0.09"/><rect x="732" y="234" width="68" height="12" rx="2" fill="#f0be50" fill-opacity="0.06"/><rect x="880" y="234" width="54" height="12" rx="2" fill="#f0be50" fill-opacity="0.07"/><rect x="30" y="284" width="54" height="12" rx="2" fill="#f0be50" fill-opacity="0.06"/><rect x="206" y="284" width="26" height="12" rx="2" fill="#f0be50" fill-opacity="0.07"/><rect x="246" y="284" width="96" height="12" rx="2" fill="#f0be50" fill-opacity="0.08"/><rect x="356" y="284" width="54" height="12" rx="2" fill="#f0be50" fill-opacity="0.03"/><rect x="424" y="284" width="68" height="12" rx="2" fill="#f0be50" fill-opacity="0.03"/><rect x="506" y="284" width="26" height="12" rx="2" fill="#f0be50" fill-opacity="0.04"/><rect x="572" y="284" width="68" height="12" rx="2" fill="#f0be50" fill-opacity="0.04"/><rect x="654" y="284" width="54" height="12" rx="2" fill="#f0be50" fill-opacity="0.03"/><rect x="722" y="284" width="96" height="12" rx="2" fill="#f0be50" fill-opacity="0.04"/><rect x="832" y="284" width="40" height="12" rx="2" fill="#f0be50" fill-opacity="0.09"/><rect x="1032" y="284" width="40" height="12" rx="2" fill="#f0be50" fill-opacity="0.04"/><rect x="1086" y="284" width="40" height="12" rx="2" fill="#f0be50" fill-opacity="0.03"/><rect x="30" y="334" width="68" height="12" rx="2" fill="#f0be50" fill-opacity="0.05"/><rect x="138" y="334" width="96" height="12" rx="2" fill="#f0be50" fill-opacity="0.06"/><rect x="314" y="334" width="96" height="12" rx="2" fill="#f0be50" fill-opacity="0.04"/><rect x="424" y="334" width="96" height="12" rx="2" fill="#f0be50" fill-opacity="0.05"/><rect x="588" y="334" width="40" height="12" rx="2" fill="#f0be50" fill-opacity="0.03"/><rect x="642" y="334" width="26" height="12" rx="2" fill="#f0be50" fill-opacity="0.03"/><rect x="682" y="334" width="96" height="12" rx="2" fill="#f0be50" fill-opacity="0.05"/><rect x="858" y="334" width="26" height="12" rx="2" fill="#f0be50" fill-opacity="0.04"/><rect x="924" y="334" width="40" height="12" rx="2" fill="#f0be50" fill-opacity="0.08"/><rect x="978" y="334" width="26" height="12" rx="2" fill="#f0be50" fill-opacity="0.08"/><rect x="1084" y="334" width="26" height="12" rx="2" fill="#f0be50" fill-opacity="0.08"/><rect x="70" y="384" width="26" height="12" rx="2" fill="#f0be50" fill-opacity="0.03"/><rect x="136" y="384" width="54" height="12" rx="2" fill="#f0be50" fill-opacity="0.04"/><rect x="204" y="384" width="96" height="12" rx="2" fill="#f0be50" fill-opacity="0.04"/><rect x="314" y="384" width="96" height="12" rx="2" fill="#f0be50" fill-opacity="0.07"/><rect x="424" y="384" width="96" height="12" rx="2" fill="#f0be50" fill-opacity="0.07"/><rect x="534" y="384" width="54" height="12" rx="2" fill="#f0be50" fill-opacity="0.03"/><rect x="602" y="384" width="26" height="12" rx="2" fill="#f0be50" fill-opacity="0.08"/><rect x="642" y="384" width="68" height="12" rx="2" fill="#f0be50" fill-opacity="0.03"/><rect x="724" y="384" width="40" height="12" rx="2" fill="#f0be50" fill-opacity="0.05"/><rect x="778" y="384" width="68" height="12" rx="2" fill="#f0be50" fill-opacity="0.09"/><rect x="860" y="384" width="26" height="12" rx="2" fill="#f0be50" fill-opacity="0.07"/><rect x="900" y="384" width="40" height="12" rx="2" fill="#f0be50" fill-opacity="0.06"/><rect x="1020" y="384" width="40" height="12" rx="2" fill="#f0be50" fill-opacity="0.08"/><rect x="30" y="434" width="68" height="12" rx="2" fill="#f0be50" fill-opacity="0.08"/><rect x="138" y="434" width="54" height="12" rx="2" fill="#f0be50" fill-opacity="0.05"/><rect x="206" y="434" width="40" height="12" rx="2" fill="#f0be50" fill-opacity="0.03"/><rect x="260" y="434" width="96" height="12" rx="2" fill="#f0be50" fill-opacity="0.09"/><rect x="370" y="434" width="96" height="12" rx="2" fill="#f0be50" fill-opacity="0.04"/><rect x="546" y="434" width="68" height="12" rx="2" fill="#f0be50" fill-opacity="0.09"/><rect x="694" y="434" width="96" height="12" rx="2" fill="#f0be50" fill-opacity="0.06"/><rect x="804" y="434" width="68" height="12" rx="2" fill="#f0be50" fill-opacity="0.06"/><rect x="886" y="434" width="54" height="12" rx="2" fill="#f0be50" fill-opacity="0.05"/><rect x="954" y="434" width="54" height="12" rx="2" fill="#f0be50" fill-opacity="0.09"/><rect x="1022" y="434" width="40" height="12" rx="2" fill="#f0be50" fill-opacity="0.05"/><rect x="1076" y="434" width="26" height="12" rx="2" fill="#f0be50" fill-opacity="0.07"/><rect x="1116" y="434" width="26" height="12" rx="2" fill="#f0be50" fill-opacity="0.06"/><rect x="30" y="484" width="40" height="12" rx="2" fill="#f0be50" fill-opacity="0.03"/><rect x="150" y="484" width="96" height="12" rx="2" fill="#f0be50" fill-opacity="0.06"/><rect x="260" y="484" width="54" height="12" rx="2" fill="#f0be50" fill-opacity="0.07"/><rect x="354" y="484" width="54" height="12" rx="2" fill="#f0be50" fill-opacity="0.09"/><rect x="422" y="484" width="54" height="12" rx="2" fill="#f0be50" fill-opacity="0.03"/><rect x="556" y="484" width="96" height="12" rx="2" fill="#f0be50" fill-opacity="0.04"/><rect x="732" y="484" width="96" height="12" rx="2" fill="#f0be50" fill-opacity="0.08"/><rect x="882" y="484" width="40" height="12" rx="2" fill="#f0be50" fill-opacity="0.04"/><rect x="990" y="484" width="40" height="12" rx="2" fill="#f0be50" fill-opacity="0.08"/><rect x="1070" y="484" width="96" height="12" rx="2" fill="#f0be50" fill-opacity="0.07"/><rect x="112" y="534" width="96" height="12" rx="2" fill="#f0be50" fill-opacity="0.04"/><rect x="290" y="534" width="26" height="12" rx="2" fill="#f0be50" fill-opacity="0.08"/><rect x="438" y="534" width="54" height="12" rx="2" fill="#f0be50" fill-opacity="0.05"/><rect x="588" y="534" width="26" height="12" rx="2" fill="#f0be50" fill-opacity="0.09"/><rect x="628" y="534" width="40" height="12" rx="2" fill="#f0be50" fill-opacity="0.04"/><rect x="682" y="534" width="68" height="12" rx="2" fill="#f0be50" fill-opacity="0.09"/><rect x="764" y="534" width="96" height="12" rx="2" fill="#f0be50" fill-opacity="0.04"/><rect x="874" y="534" width="68" height="12" rx="2" fill="#f0be50" fill-opacity="0.04"/><rect x="1022" y="534" width="68" height="12" rx="2" fill="#f0be50" fill-opacity="0.06"/><rect x="30" y="584" width="40" height="12" rx="2" fill="#f0be50" fill-opacity="0.09"/><rect x="84" y="584" width="68" height="12" rx="2" fill="#f0be50" fill-opacity="0.09"/><rect x="232" y="584" width="54" height="12" rx="2" fill="#f0be50" fill-opacity="0.08"/><rect x="300" y="584" width="68" height="12" rx="2" fill="#f0be50" fill-opacity="0.08"/><rect x="382" y="584" width="96" height="12" rx="2" fill="#f0be50" fill-opacity="0.08"/><rect x="558" y="584" width="26" height="12" rx="2" fill="#f0be50" fill-opacity="0.09"/><rect x="624" y="584" width="96" height="12" rx="2" fill="#f0be50" fill-opacity="0.04"/><rect x="734" y="584" width="54" height="12" rx="2" fill="#f0be50" fill-opacity="0.04"/><rect x="868" y="584" width="54" height="12" rx="2" fill="#f0be50" fill-opacity="0.05"/><rect x="936" y="584" width="54" height="12" rx="2" fill="#f0be50" fill-opacity="0.08"/><rect x="1004" y="584" width="40" height="12" rx="2" fill="#f0be50" fill-opacity="0.04"/><rect x="1124" y="584" width="26" height="12" rx="2" fill="#f0be50" fill-opacity="0.09"/><rect x="30" y="634" width="96" height="12" rx="2" fill="#f0be50" fill-opacity="0.04"/><rect x="166" y="634" width="40" height="12" rx="2" fill="#f0be50" fill-opacity="0.07"/><rect x="286" y="634" width="54" height="12" rx="2" fill="#f0be50" fill-opacity="0.08"/><rect x="354" y="634" width="68" height="12" rx="2" fill="#f0be50" fill-opacity="0.07"/><rect x="436" y="634" width="96" height="12" rx="2" fill="#f0be50" fill-opacity="0.04"/><rect x="546" y="634" width="68" height="12" rx="2" fill="#f0be50" fill-opacity="0.07"/><rect x="694" y="634" width="54" height="12" rx="2" fill="#f0be50" fill-opacity="0.08"/><rect x="762" y="634" width="54" height="12" rx="2" fill="#f0be50" fill-opacity="0.08"/><rect x="936" y="634" width="68" height="12" rx="2" fill="#f0be50" fill-opacity="0.04"/><rect x="1018" y="634" width="26" height="12" rx="2" fill="#f0be50" fill-opacity="0.05"/><rect x="1124" y="634" width="26" height="12" rx="2" fill="#f0be50" fill-opacity="0.03"/><rect x="30" y="684" width="68" height="12" rx="2" fill="#f0be50" fill-opacity="0.03"/><rect x="112" y="684" width="54" height="12" rx="2" fill="#f0be50" fill-opacity="0.03"/><rect x="180" y="684" width="54" height="12" rx="2" fill="#f0be50" fill-opacity="0.06"/><rect x="314" y="684" width="26" height="12" rx="2" fill="#f0be50" fill-opacity="0.05"/><rect x="380" y="684" width="68" height="12" rx="2" fill="#f0be50" fill-opacity="0.05"/><rect x="568" y="684" width="96" height="12" rx="2" fill="#f0be50" fill-opacity="0.04"/><rect x="678" y="684" width="54" height="12" rx="2" fill="#f0be50" fill-opacity="0.09"/><rect x="746" y="684" width="26" height="12" rx="2" fill="#f0be50" fill-opacity="0.04"/><rect x="852" y="684" width="26" height="12" rx="2" fill="#f0be50" fill-opacity="0.05"/><rect x="918" y="684" width="40" height="12" rx="2" fill="#f0be50" fill-opacity="0.05"/><rect x="972" y="684" width="40" height="12" rx="2" fill="#f0be50" fill-opacity="0.09"/><rect x="1026" y="684" width="40" height="12" rx="2" fill="#f0be50" fill-opacity="0.06"/><rect x="230" y="150" width="740" height="424" rx="14" fill="#12100a" fill-opacity="0.78" stroke="#f0be50" stroke-opacity="0.34" stroke-width="1.5"/><circle cx="256" cy="178" r="6" fill="#f0be50" fill-opacity="0.34"/><circle cx="278" cy="178" r="6" fill="#f0be50" fill-opacity="0.26"/><circle cx="300" cy="178" r="6" fill="#f0be50" fill-opacity="0.18"/><line x1="231" y1="204" x2="969" y2="204" stroke="#f0be50" stroke-opacity="0.2" stroke-width="1"/><text x="262" y="302" font-family="ui-monospace,Menlo,Consolas,monospace" font-size="20" fill="#f0be50" fill-opacity="0.85">$</text><rect x="290" y="286" width="60" height="20" rx="3" fill="#f0be50" fill-opacity="0.55"/><rect x="362" y="286" width="150" height="20" rx="3" fill="#f0be50" fill-opacity="0.55"/><rect x="524" y="286" width="96" height="20" rx="3" fill="#f0be50" fill-opacity="0.55"/><rect x="646" y="286" width="130" height="20" rx="3" fill="#f0be50" fill-opacity="0.12"/><rect x="788" y="286" width="110" height="20" rx="3" fill="#f0be50" fill-opacity="0.55"/><rect x="646" y="286" width="130" height="20" rx="3" fill="none" stroke="#f0be50" stroke-opacity="0.55" stroke-width="1.5" stroke-dasharray="5 4"/><rect x="631" y="282" width="10" height="28" rx="1" fill="#f0be50" fill-opacity="0.95"/><path d="M636,276 Q464.0,226 292,270" fill="none" stroke="#f0be50" stroke-opacity="0.5" stroke-width="2"/><text x="452" y="240" font-family="ui-monospace,Menlo,Consolas,monospace" font-size="17" fill="#f0be50" fill-opacity="0.8">^A</text><path d="M636,276 Q767.0,226 898,270" fill="none" stroke="#f0be50" stroke-opacity="0.5" stroke-width="2"/><text x="776" y="240" font-family="ui-monospace,Menlo,Consolas,monospace" font-size="17" fill="#f0be50" fill-opacity="0.8">^E</text><rect x="646" y="342" width="130" height="20" rx="3" fill="#f0be50" fill-opacity="0.55"/><path d="M711,338 L711,316" stroke="#f0be50" stroke-opacity="0.5" stroke-width="2"/><path d="M705,322 L711,312 L717,322 z" fill="#f0be50" fill-opacity="0.5"/><text x="790" y="358" font-family="ui-monospace,Menlo,Consolas,monospace" font-size="17" fill="#f0be50" fill-opacity="0.8">^Y</text><text x="262" y="427" font-family="ui-monospace,Menlo,Consolas,monospace" font-size="15" fill="#f0be50" fill-opacity="0.35">41</text><rect x="300" y="412" width="180" height="18" rx="3" fill="#f0be50" fill-opacity="0.16"/><text x="262" y="461" font-family="ui-monospace,Menlo,Consolas,monospace" font-size="15" fill="#f0be50" fill-opacity="0.35">42</text><rect x="300" y="446" width="236" height="18" rx="3" fill="#f0be50" fill-opacity="0.16"/><text x="262" y="495" font-family="ui-monospace,Menlo,Consolas,monospace" font-size="15" fill="#f0be50" fill-opacity="0.8">43</text><rect x="300" y="480" width="150" height="18" rx="3" fill="#f0be50" fill-opacity="0.6"/><text x="262" y="529" font-family="ui-monospace,Menlo,Consolas,monospace" font-size="15" fill="#f0be50" fill-opacity="0.35">44</text><rect x="300" y="514" width="206" height="18" rx="3" fill="#f0be50" fill-opacity="0.16"/><rect x="286" y="472" width="178" height="34" rx="6" fill="none" stroke="#f0be50" stroke-opacity="0.6" stroke-width="1.5"/><text x="500" y="495" font-family="ui-monospace,Menlo,Consolas,monospace" font-size="17" fill="#f0be50" fill-opacity="0.8">^R</text></svg>