<svg xmlns="http://www.w3.org/2000/svg" viewBox="0 0 1200 720" width="1200" height="720"><defs><linearGradient id="g" x1="0" y1="0" x2="1" y2="1"><stop offset="0" stop-color="#1b1408"/><stop offset="1" stop-color="#2b2416"/></linearGradient><marker id="ca" viewBox="0 0 10 10" refX="9" refY="5" markerWidth="7" markerHeight="7" orient="auto"><path d="M0,0 L10,5 L0,10 z" fill="#f0be50" fill-opacity="0.8"/></marker></defs><rect width="1200" height="720" fill="url(#g)"/><rect x="152" y="34" width="26" height="12" rx="2" fill="#f0be50" fill-opacity="0.07"/><rect x="232" y="34" width="68" height="12" rx="2" fill="#f0be50" fill-opacity="0.08"/><rect x="368" y="34" width="68" height="12" rx="2" fill="#f0be50" fill-opacity="0.04"/><rect x="518" y="34" width="40" height="12" rx="2" fill="#f0be50" fill-opacity="0.06"/><rect x="654" y="34" width="54" height="12" rx="2" fill="#f0be50" fill-opacity="0.08"/><rect x="722" y="34" width="54" height="12" rx="2" fill="#f0be50" fill-opacity="0.04"/><rect x="790" y="34" width="68" height="12" rx="2" fill="#f0be50" fill-opacity="0.04"/><rect x="872" y="34" width="68" height="12" rx="2" fill="#f0be50" fill-opacity="0.03"/><rect x="1118" y="34" width="54" height="12" rx="2" fill="#f0be50" fill-opacity="0.09"/><rect x="124" y="84" width="96" height="12" rx="2" fill="#f0be50" fill-opacity="0.06"/><rect x="234" y="84" width="26" height="12" rx="2" fill="#f0be50" fill-opacity="0.05"/><rect x="384" y="84" width="40" height="12" rx="2" fill="#f0be50" fill-opacity="0.04"/><rect x="478" y="84" width="54" height="12" rx="2" fill="#f0be50" fill-opacity="0.08"/><rect x="546" y="84" width="26" height="12" rx="2" fill="#f0be50" fill-opacity="0.09"/><rect x="626" y="84" width="96" height="12" rx="2" fill="#f0be50" fill-opacity="0.07"/><rect x="790" y="84" width="26" height="12" rx="2" fill="#f0be50" fill-opacity="0.09"/><rect x="830" y="84" width="40" height="12" rx="2" fill="#f0be50" fill-opacity="0.06"/><rect x="884" y="84" width="68" height="12" rx="2" fill="#f0be50" fill-opacity="0.08"/><rect x="98" y="134" width="40" height="12" rx="2" fill="#f0be50" fill-opacity="0.06"/><rect x="152" y="134" width="54" height="12" rx="2" fill="#f0be50" fill-opacity="0.04"/><rect x="220" y="134" width="26" height="12" rx="2" fill="#f0be50" fill-opacity="0.03"/><rect x="260" y="134" width="54" height="12" rx="2" fill="#f0be50" fill-opacity="0.04"/><rect x="368" y="134" width="68" height="12" rx="2" fill="#f0be50" fill-opacity="0.06"/><rect x="450" y="134" width="68" height="12" rx="2" fill="#f0be50" fill-opacity="0.04"/><rect x="532" y="134" width="96" height="12" rx="2" fill="#f0be50" fill-opacity="0.05"/><rect x="642" y="134" width="96" height="12" rx="2" fill="#f0be50" fill-opacity="0.06"/><rect x="792" y="134" width="68" height="12" rx="2" fill="#f0be50" fill-opacity="0.04"/><rect x="874" y="134" width="68" height="12" rx="2" fill="#f0be50" fill-opacity="0.05"/><rect x="956" y="134" width="96" height="12" rx="2" fill="#f0be50" fill-opacity="0.08"/><rect x="1066" y="134" width="40" height="12" rx="2" fill="#f0be50" fill-opacity="0.03"/><rect x="1120" y="134" width="68" height="12" rx="2" fill="#f0be50" fill-opacity="0.09"/><rect x="316" y="184" width="26" height="12" rx="2" fill="#f0be50" fill-opacity="0.09"/><rect x="438" y="184" width="68" height="12" rx="2" fill="#f0be50" fill-opacity="0.06"/><rect x="520" y="184" width="54" height="12" rx="2" fill="#f0be50" fill-opacity="0.09"/><rect x="588" y="184" width="68" height="12" rx="2" fill="#f0be50" fill-opacity="0.08"/><rect x="670" y="184" width="96" height="12" rx="2" fill="#f0be50" fill-opacity="0.04"/><rect x="780" y="184" width="40" height="12" rx="2" fill="#f0be50" fill-opacity="0.03"/><rect x="834" y="184" width="40" height="12" rx="2" fill="#f0be50" fill-opacity="0.07"/><rect x="888" y="184" width="96" height="12" rx="2" fill="#f0be50" fill-opacity="0.06"/><rect x="998" y="184" width="26" height="12" rx="2" fill="#f0be50" fill-opacity="0.05"/><rect x="1038" y="184" width="68" height="12" rx="2" fill="#f0be50" fill-opacity="0.04"/><rect x="1120" y="184" width="54" height="12" rx="2" fill="#f0be50" fill-opacity="0.03"/><rect x="152" y="234" width="26" height="12" rx="2" fill="#f0be50" fill-opacity="0.05"/><rect x="192" y="234" width="40" height="12" rx="2" fill="#f0be50" fill-opacity="0.04"/><rect x="246" y="234" width="54" height="12" rx="2" fill="#f0be50" fill-opacity="0.09"/><rect x="314" y="234" width="40" height="12" rx="2" fill="#f0be50" fill-opacity="0.04"/><rect x="368" y="234" width="26" height="12" rx="2" fill="#f0be50" fill-opacity="0.06"/><rect x="408" y="234" width="40" height="12" rx="2" fill="#f0be50" fill-opacity="0.08"/><rect x="462" y="234" width="54" height="12" rx="2" fill="#f0be50" fill-opacity="0.06"/><rect x="530" y="234" width="96" height="12" rx="2" fill="#f0be50" fill-opacity="0.06"/><rect x="750" y="234" width="96" height="12" rx="2" fill="#f0be50" fill-opacity="0.08"/><rect x="900" y="234" width="96" height="12" rx="2" fill="#f0be50" fill-opacity="0.06"/><rect x="1064" y="234" width="68" height="12" rx="2" fill="#f0be50" fill-opacity="0.09"/><rect x="1146" y="234" width="26" height="12" rx="2" fill="#f0be50" fill-opacity="0.05"/><rect x="138" y="284" width="40" height="12" rx="2" fill="#f0be50" fill-opacity="0.05"/><rect x="192" y="284" width="68" height="12" rx="2" fill="#f0be50" fill-opacity="0.07"/><rect x="274" y="284" width="68" height="12" rx="2" fill="#f0be50" fill-opacity="0.05"/><rect x="356" y="284" width="68" height="12" rx="2" fill="#f0be50" fill-opacity="0.05"/><rect x="438" y="284" width="54" height="12" rx="2" fill="#f0be50" fill-opacity="0.06"/><rect x="506" y="284" width="68" height="12" rx="2" fill="#f0be50" fill-opacity="0.07"/><rect x="670" y="284" width="96" height="12" rx="2" fill="#f0be50" fill-opacity="0.09"/><rect x="780" y="284" width="68" height="12" rx="2" fill="#f0be50" fill-opacity="0.04"/><rect x="862" y="284" width="96" height="12" rx="2" fill="#f0be50" fill-opacity="0.08"/><rect x="124" y="334" width="26" height="12" rx="2" fill="#f0be50" fill-opacity="0.07"/><rect x="394" y="334" width="26" height="12" rx="2" fill="#f0be50" fill-opacity="0.04"/><rect x="434" y="334" width="96" height="12" rx="2" fill="#f0be50" fill-opacity="0.06"/><rect x="654" y="334" width="40" height="12" rx="2" fill="#f0be50" fill-opacity="0.07"/><rect x="708" y="334" width="40" height="12" rx="2" fill="#f0be50" fill-opacity="0.09"/><rect x="762" y="334" width="96" height="12" rx="2" fill="#f0be50" fill-opacity="0.09"/><rect x="872" y="334" width="54" height="12" rx="2" fill="#f0be50" fill-opacity="0.08"/><rect x="1050" y="334" width="96" height="12" rx="2" fill="#f0be50" fill-opacity="0.06"/><rect x="152" y="384" width="40" height="12" rx="2" fill="#f0be50" fill-opacity="0.03"/><rect x="206" y="384" width="96" height="12" rx="2" fill="#f0be50" fill-opacity="0.05"/><rect x="370" y="384" width="96" height="12" rx="2" fill="#f0be50" fill-opacity="0.05"/><rect x="480" y="384" width="26" height="12" rx="2" fill="#f0be50" fill-opacity="0.07"/><rect x="588" y="384" width="68" height="12" rx="2" fill="#f0be50" fill-opacity="0.07"/><rect x="670" y="384" width="68" height="12" rx="2" fill="#f0be50" fill-opacity="0.07"/><rect x="752" y="384" width="40" height="12" rx="2" fill="#f0be50" fill-opacity="0.06"/><rect x="806" y="384" width="54" height="12" rx="2" fill="#f0be50" fill-opacity="0.07"/><rect x="874" y="384" width="68" height="12" rx="2" fill="#f0be50" fill-opacity="0.03"/><rect x="956" y="384" width="68" height="12" rx="2" fill="#f0be50" fill-opacity="0.03"/><rect x="1038" y="384" width="40" height="12" rx="2" fill="#f0be50" fill-opacity="0.04"/><rect x="1092" y="384" width="96" height="12" rx="2" fill="#f0be50" fill-opacity="0.09"/><rect x="152" y="434" width="68" height="12" rx="2" fill="#f0be50" fill-opacity="0.07"/><rect x="382" y="434" width="96" height="12" rx="2" fill="#f0be50" fill-opacity="0.04"/><rect x="492" y="434" width="54" height="12" rx="2" fill="#f0be50" fill-opacity="0.03"/><rect x="560" y="434" width="68" height="12" rx="2" fill="#f0be50" fill-opacity="0.06"/><rect x="642" y="434" width="26" height="12" rx="2" fill="#f0be50" fill-opacity="0.04"/><rect x="764" y="434" width="68" height="12" rx="2" fill="#f0be50" fill-opacity="0.06"/><rect x="846" y="434" width="54" height="12" rx="2" fill="#f0be50" fill-opacity="0.04"/><rect x="914" y="434" width="40" height="12" rx="2" fill="#f0be50" fill-opacity="0.06"/><rect x="968" y="434" width="40" height="12" rx="2" fill="#f0be50" fill-opacity="0.08"/><rect x="1022" y="434" width="68" height="12" rx="2" fill="#f0be50" fill-opacity="0.06"/><rect x="124" y="484" width="54" height="12" rx="2" fill="#f0be50" fill-opacity="0.09"/><rect x="192" y="484" width="26" height="12" rx="2" fill="#f0be50" fill-opacity="0.07"/><rect x="232" y="484" width="96" height="12" rx="2" fill="#f0be50" fill-opacity="0.04"/><rect x="452" y="484" width="40" height="12" rx="2" fill="#f0be50" fill-opacity="0.06"/><rect x="642" y="484" width="68" height="12" rx="2" fill="#f0be50" fill-opacity="0.05"/><rect x="792" y="484" width="40" height="12" rx="2" fill="#f0be50" fill-opacity="0.07"/><rect x="956" y="484" width="68" height="12" rx="2" fill="#f0be50" fill-opacity="0.03"/><rect x="1038" y="484" width="68" height="12" rx="2" fill="#f0be50" fill-opacity="0.04"/><rect x="1120" y="484" width="26" height="12" rx="2" fill="#f0be50" fill-opacity="0.08"/><rect x="138" y="534" width="54" height="12" rx="2" fill="#f0be50" fill-opacity="0.04"/><rect x="206" y="534" width="40" height="12" rx="2" fill="#f0be50" fill-opacity="0.06"/><rect x="260" y="534" width="96" height="12" rx="2" fill="#f0be50" fill-opacity="0.07"/><rect x="370" y="534" width="68" height="12" rx="2" fill="#f0be50" fill-opacity="0.09"/><rect x="532" y="534" width="26" height="12" rx="2" fill="#f0be50" fill-opacity="0.09"/><rect x="708" y="534" width="68" height="12" rx="2" fill="#f0be50" fill-opacity="0.04"/><rect x="790" y="534" width="96" height="12" rx="2" fill="#f0be50" fill-opacity="0.03"/><rect x="1010" y="534" width="68" height="12" rx="2" fill="#f0be50" fill-opacity="0.06"/><rect x="138" y="584" width="68" height="12" rx="2" fill="#f0be50" fill-opacity="0.08"/><rect x="220" y="584" width="54" height="12" rx="2" fill="#f0be50" fill-opacity="0.04"/><rect x="356" y="584" width="26" height="12" rx="2" fill="#f0be50" fill-opacity="0.04"/><rect x="464" y="584" width="96" height="12" rx="2" fill="#f0be50" fill-opacity="0.09"/><rect x="574" y="584" width="26" height="12" rx="2" fill="#f0be50" fill-opacity="0.05"/><rect x="614" y="584" width="96" height="12" rx="2" fill="#f0be50" fill-opacity="0.09"/><rect x="724" y="584" width="26" height="12" rx="2" fill="#f0be50" fill-opacity="0.08"/><rect x="764" y="584" width="96" height="12" rx="2" fill="#f0be50" fill-opacity="0.07"/><rect x="874" y="584" width="40" height="12" rx="2" fill="#f0be50" fill-opacity="0.08"/><rect x="928" y="584" width="26" height="12" rx="2" fill="#f0be50" fill-opacity="0.08"/><rect x="968" y="584" width="40" height="12" rx="2" fill="#f0be50" fill-opacity="0.04"/><rect x="1022" y="584" width="40" height="12" rx="2" fill="#f0be50" fill-opacity="0.08"/><rect x="1158" y="584" width="26" height="12" rx="2" fill="#f0be50" fill-opacity="0.08"/><rect x="138" y="634" width="54" height="12" rx="2" fill="#f0be50" fill-opacity="0.06"/><rect x="206" y="634" width="40" height="12" rx="2" fill="#f0be50" fill-opacity="0.04"/><rect x="260" y="634" width="26" height="12" rx="2" fill="#f0be50" fill-opacity="0.04"/><rect x="300" y="634" width="68" height="12" rx="2" fill="#f0be50" fill-opacity="0.08"/><rect x="382" y="634" width="40" height="12" rx="2" fill="#f0be50" fill-opacity="0.08"/><rect x="518" y="634" width="68" height="12" rx="2" fill="#f0be50" fill-opacity="0.04"/><rect x="600" y="634" width="68" height="12" rx="2" fill="#f0be50" fill-opacity="0.04"/><rect x="682" y="634" width="68" height="12" rx="2" fill="#f0be50" fill-opacity="0.08"/><rect x="764" y="634" width="96" height="12" rx="2" fill="#f0be50" fill-opacity="0.09"/><rect x="874" y="634" width="96" height="12" rx="2" fill="#f0be50" fill-opacity="0.08"/><rect x="984" y="634" width="54" height="12" rx="2" fill="#f0be50" fill-opacity="0.05"/><rect x="1106" y="634" width="26" height="12" rx="2" fill="#f0be50" fill-opacity="0.07"/><rect x="70" y="684" width="68" height="12" rx="2" fill="#f0be50" fill-opacity="0.09"/><rect x="152" y="684" width="26" height="12" rx="2" fill="#f0be50" fill-opacity="0.08"/><rect x="232" y="684" width="26" height="12" rx="2" fill="#f0be50" fill-opacity="0.06"/><rect x="272" y="684" width="40" height="12" rx="2" fill="#f0be50" fill-opacity="0.09"/><rect x="326" y="684" width="96" height="12" rx="2" fill="#f0be50" fill-opacity="0.08"/><rect x="476" y="684" width="54" height="12" rx="2" fill="#f0be50" fill-opacity="0.06"/><rect x="612" y="684" width="40" height="12" rx="2" fill="#f0be50" fill-opacity="0.06"/><rect x="666" y="684" width="96" height="12" rx="2" fill="#f0be50" fill-opacity="0.04"/><rect x="776" y="684" width="40" height="12" rx="2" fill="#f0be50" fill-opacity="0.09"/><rect x="912" y="684" width="96" height="12" rx="2" fill="#f0be50" fill-opacity="0.08"/><rect x="1022" y="684" width="68" height="12" rx="2" fill="#f0be50" fill-opacity="0.04"/><rect x="1104" y="684" width="26" height="12" rx="2" fill="#f0be50" fill-opacity="0.08"/><rect x="1144" y="684" width="40" height="12" rx="2" fill="#f0be50" fill-opacity="0.07"/><rect x="230" y="150" width="740" height="424" rx="14" fill="#12100a" fill-opacity="0.78" stroke="#f0be50" stroke-opacity="0.34" stroke-width="1.5"/><circle cx="256" cy="178" r="6" fill="#f0be50" fill-opacity="0.34"/><circle cx="278" cy="178" r="6" fill="#f0be50" fill-opacity="0.26"/><circle cx="300" cy="178" r="6" fill="#f0be50" fill-opacity="0.18"/><line x1="231" y1="204" x2="969" y2="204" stroke="#f0be50" stroke-opacity="0.2" stroke-width="1"/><text x="262" y="248" font-family="ui-monospace,Menlo,Consolas,monospace" font-size="18" fill="#f0be50" fill-opacity="0.85">$ echo day{1..3}.log ~ $((6*7))</text><rect x="604" y="234" width="10" height="18" fill="#f0be50" fill-opacity="0.6"/><rect x="318" y="376" width="214" height="58" rx="10" fill="#f0be50" fill-opacity="0.12" stroke="#f0be50" stroke-opacity="0.75" stroke-width="1.5"/><text x="425.0" y="412.0" font-family="ui-monospace,Menlo,Consolas,monospace" font-size="20" fill="#f0be50" fill-opacity="0.85" text-anchor="middle">day{1..3}.log</text><path d="M538,405 C600,405 610,329 668,329" stroke="#f0be50" stroke-opacity="0.7" stroke-width="2" fill="none" marker-end="url(#ca)"/><path d="M538,405 C600,405 610,405 668,405" stroke="#f0be50" stroke-opacity="0.7" stroke-width="2" fill="none" marker-end="url(#ca)"/><path d="M538,405 C600,405 610,481 668,481" stroke="#f0be50" stroke-opacity="0.7" stroke-width="2" fill="none" marker-end="url(#ca)"/><rect x="676" y="300" width="190" height="58" rx="10" fill="#f0be50" fill-opacity="0.06" stroke="#f0be50" stroke-opacity="0.55" stroke-width="1.5"/><text x="771.0" y="336.0" font-family="ui-monospace,Menlo,Consolas,monospace" font-size="20" fill="#f0be50" fill-opacity="0.85" text-anchor="middle">day1.log</text><rect x="676" y="376" width="190" height="58" rx="10" fill="#f0be50" fill-opacity="0.06" stroke="#f0be50" stroke-opacity="0.55" stroke-width="1.5"/><text x="771.0" y="412.0" font-family="ui-monospace,Menlo,Consolas,monospace" font-size="20" fill="#f0be50" fill-opacity="0.85" text-anchor="middle">day2.log</text><rect x="676" y="452" width="190" height="58" rx="10" fill="#f0be50" fill-opacity="0.06" stroke="#f0be50" stroke-opacity="0.55" stroke-width="1.5"/><text x="771.0" y="488.0" font-family="ui-monospace,Menlo,Consolas,monospace" font-size="20" fill="#f0be50" fill-opacity="0.85" text-anchor="middle">day3.log</text></svg>