<svg xmlns="http://www.w3.org/2000/svg" viewBox="0 0 1200 720" width="1200" height="720"><defs><linearGradient id="g" x1="0" y1="0" x2="1" y2="1"><stop offset="0" stop-color="#191324"/><stop offset="1" stop-color="#2b2536"/></linearGradient></defs><rect width="1200" height="720" fill="url(#g)"/><line x1="-576" y1="0" x2="144" y2="720" stroke="#8a6fc0" stroke-opacity="0.26" stroke-width="1"/><line x1="-576" y1="0" x2="-1296" y2="720" stroke="#8a6fc0" stroke-opacity="0.26" stroke-width="1"/><line x1="-528" y1="0" x2="192" y2="720" stroke="#8a6fc0" stroke-opacity="0.26" stroke-width="1"/><line x1="-528" y1="0" x2="-1248" y2="720" stroke="#8a6fc0" stroke-opacity="0.26" stroke-width="1"/><line x1="-480" y1="0" x2="240" y2="720" stroke="#8a6fc0" stroke-opacity="0.26" stroke-width="1"/><line x1="-480" y1="0" x2="-1200" y2="720" stroke="#8a6fc0" stroke-opacity="0.26" stroke-width="1"/><line x1="-432" y1="0" x2="288" y2="720" stroke="#8a6fc0" stroke-opacity="0.26" stroke-width="1"/><line x1="-432" y1="0" x2="-1152" y2="720" stroke="#8a6fc0" stroke-opacity="0.26" stroke-width="1"/><line x1="-384" y1="0" x2="336" y2="720" stroke="#8a6fc0" stroke-opacity="0.26" stroke-width="1"/><line x1="-384" y1="0" x2="-1104" y2="720" stroke="#8a6fc0" stroke-opacity="0.26" stroke-width="1"/><line x1="-336" y1="0" x2="384" y2="720" stroke="#8a6fc0" stroke-opacity="0.26" stroke-width="1"/><line x1="-336" y1="0" x2="-1056" y2="720" stroke="#8a6fc0" stroke-opacity="0.26" stroke-width="1"/><line x1="-288" y1="0" x2="432" y2="720" stroke="#8a6fc0" stroke-opacity="0.26" stroke-width="1"/><line x1="-288" y1="0" x2="-1008" y2="720" stroke="#8a6fc0" stroke-opacity="0.26" stroke-width="1"/><line x1="-240" y1="0" x2="480" y2="720" stroke="#8a6fc0" stroke-opacity="0.26" stroke-width="1"/><line x1="-240" y1="0" x2="-960" y2="720" stroke="#8a6fc0" stroke-opacity="0.26" stroke-width="1"/><line x1="-192" y1="0" x2="528" y2="720" stroke="#8a6fc0" stroke-opacity="0.26" stroke-width="1"/><line x1="-192" y1="0" x2="-912" y2="720" stroke="#8a6fc0" stroke-opacity="0.26" stroke-width="1"/><line x1="-144" y1="0" x2="576" y2="720" stroke="#8a6fc0" stroke-opacity="0.26" stroke-width="1"/><line x1="-144" y1="0" x2="-864" y2="720" stroke="#8a6fc0" stroke-opacity="0.26" stroke-width="1"/><line x1="-96" y1="0" x2="624" y2="720" stroke="#8a6fc0" stroke-opacity="0.26" stroke-width="1"/><line x1="-96" y1="0" x2="-816" y2="720" stroke="#8a6fc0" stroke-opacity="0.26" stroke-width="1"/><line x1="-48" y1="0" x2="672" y2="720" stroke="#8a6fc0" stroke-opacity="0.26" stroke-width="1"/><line x1="-48" y1="0" x2="-768" y2="720" stroke="#8a6fc0" stroke-opacity="0.26" stroke-width="1"/><line x1="0" y1="0" x2="720" y2="720" stroke="#8a6fc0" stroke-opacity="0.26" stroke-width="1"/><line x1="0" y1="0" x2="-720" y2="720" stroke="#8a6fc0" stroke-opacity="0.26" stroke-width="1"/><line x1="48" y1="0" x2="768" y2="720" stroke="#8a6fc0" stroke-opacity="0.26" stroke-width="1"/><line x1="48" y1="0" x2="-672" y2="720" stroke="#8a6fc0" stroke-opacity="0.26" stroke-width="1"/><line x1="96" y1="0" x2="816" y2="720" stroke="#8a6fc0" stroke-opacity="0.26" stroke-width="1"/><line x1="96" y1="0" x2="-624" y2="720" stroke="#8a6fc0" stroke-opacity="0.26" stroke-width="1"/><line x1="144" y1="0" x2="864" y2="720" stroke="#8a6fc0" stroke-opacity="0.26" stroke-width="1"/><line x1="144" y1="0" x2="-576" y2="720" stroke="#8a6fc0" stroke-opacity="0.26" stroke-width="1"/><line x1="192" y1="0" x2="912" y2="720" stroke="#8a6fc0" stroke-opacity="0.26" stroke-width="1"/><line x1="192" y1="0" x2="-528" y2="720" stroke="#8a6fc0" stroke-opacity="0.26" stroke-width="1"/><line x1="240" y1="0" x2="960" y2="720" stroke="#8a6fc0" stroke-opacity="0.26" stroke-width="1"/><line x1="240" y1="0" x2="-480" y2="720" stroke="#8a6fc0" stroke-opacity="0.26" stroke-width="1"/><line x1="288" y1="0" x2="1008" y2="720" stroke="#8a6fc0" stroke-opacity="0.26" stroke-width="1"/><line x1="288" y1="0" x2="-432" y2="720" stroke="#8a6fc0" stroke-opacity="0.26" stroke-width="1"/><line x1="336" y1="0" x2="1056" y2="720" stroke="#8a6fc0" stroke-opacity="0.26" stroke-width="1"/><line x1="336" y1="0" x2="-384" y2="720" stroke="#8a6fc0" stroke-opacity="0.26" stroke-width="1"/><line x1="384" y1="0" x2="1104" y2="720" stroke="#8a6fc0" stroke-opacity="0.26" stroke-width="1"/><line x1="384" y1="0" x2="-336" y2="720" stroke="#8a6fc0" stroke-opacity="0.26" stroke-width="1"/><line x1="432" y1="0" x2="1152" y2="720" stroke="#8a6fc0" stroke-opacity="0.26" stroke-width="1"/><line x1="432" y1="0" x2="-288" y2="720" stroke="#8a6fc0" stroke-opacity="0.26" stroke-width="1"/><line x1="480" y1="0" x2="1200" y2="720" stroke="#8a6fc0" stroke-opacity="0.26" stroke-width="1"/><line x1="480" y1="0" x2="-240" y2="720" stroke="#8a6fc0" stroke-opacity="0.26" stroke-width="1"/><line x1="528" y1="0" x2="1248" y2="720" stroke="#8a6fc0" stroke-opacity="0.26" stroke-width="1"/><line x1="528" y1="0" x2="-192" y2="720" stroke="#8a6fc0" stroke-opacity="0.26" stroke-width="1"/><line x1="576" y1="0" x2="1296" y2="720" stroke="#8a6fc0" stroke-opacity="0.26" stroke-width="1"/><line x1="576" y1="0" x2="-144" y2="720" stroke="#8a6fc0" stroke-opacity="0.26" stroke-width="1"/><line x1="624" y1="0" x2="1344" y2="720" stroke="#8a6fc0" stroke-opacity="0.26" stroke-width="1"/><line x1="624" y1="0" x2="-96" y2="720" stroke="#8a6fc0" stroke-opacity="0.26" stroke-width="1"/><line x1="672" y1="0" x2="1392" y2="720" stroke="#8a6fc0" stroke-opacity="0.26" stroke-width="1"/><line x1="672" y1="0" x2="-48" y2="720" stroke="#8a6fc0" stroke-opacity="0.26" stroke-width="1"/><line x1="720" y1="0" x2="1440" y2="720" stroke="#8a6fc0" stroke-opacity="0.26" stroke-width="1"/><line x1="720" y1="0" x2="0" y2="720" stroke="#8a6fc0" stroke-opacity="0.26" stroke-width="1"/><line x1="768" y1="0" x2="1488" y2="720" stroke="#8a6fc0" stroke-opacity="0.26" stroke-width="1"/><line x1="768" y1="0" x2="48" y2="720" stroke="#8a6fc0" stroke-opacity="0.26" stroke-width="1"/><line x1="816" y1="0" x2="1536" y2="720" stroke="#8a6fc0" stroke-opacity="0.26" stroke-width="1"/><line x1="816" y1="0" x2="96" y2="720" stroke="#8a6fc0" stroke-opacity="0.26" stroke-width="1"/><line x1="864" y1="0" x2="1584" y2="720" stroke="#8a6fc0" stroke-opacity="0.26" stroke-width="1"/><line x1="864" y1="0" x2="144" y2="720" stroke="#8a6fc0" stroke-opacity="0.26" stroke-width="1"/><line x1="912" y1="0" x2="1632" y2="720" stroke="#8a6fc0" stroke-opacity="0.26" stroke-width="1"/><line x1="912" y1="0" x2="192" y2="720" stroke="#8a6fc0" stroke-opacity="0.26" stroke-width="1"/><line x1="960" y1="0" x2="1680" y2="720" stroke="#8a6fc0" stroke-opacity="0.26" stroke-width="1"/><line x1="960" y1="0" x2="240" y2="720" stroke="#8a6fc0" stroke-opacity="0.26" stroke-width="1"/><line x1="1008" y1="0" x2="1728" y2="720" stroke="#8a6fc0" stroke-opacity="0.26" stroke-width="1"/><line x1="1008" y1="0" x2="288" y2="720" stroke="#8a6fc0" stroke-opacity="0.26" stroke-width="1"/><line x1="1056" y1="0" x2="1776" y2="720" stroke="#8a6fc0" stroke-opacity="0.26" stroke-width="1"/><line x1="1056" y1="0" x2="336" y2="720" stroke="#8a6fc0" stroke-opacity="0.26" stroke-width="1"/><line x1="1104" y1="0" x2="1824" y2="720" stroke="#8a6fc0" stroke-opacity="0.26" stroke-width="1"/><line x1="1104" y1="0" x2="384" y2="720" stroke="#8a6fc0" stroke-opacity="0.26" stroke-width="1"/><line x1="1152" y1="0" x2="1872" y2="720" stroke="#8a6fc0" stroke-opacity="0.26" stroke-width="1"/><line x1="1152" y1="0" x2="432" y2="720" stroke="#8a6fc0" stroke-opacity="0.26" stroke-width="1"/><line x1="1200" y1="0" x2="1920" y2="720" stroke="#8a6fc0" stroke-opacity="0.26" stroke-width="1"/><line x1="1200" y1="0" x2="480" y2="720" stroke="#8a6fc0" stroke-opacity="0.26" stroke-width="1"/><line x1="1248" y1="0" x2="1968" y2="720" stroke="#8a6fc0" stroke-opacity="0.26" stroke-width="1"/><line x1="1248" y1="0" x2="528" y2="720" stroke="#8a6fc0" stroke-opacity="0.26" stroke-width="1"/><line x1="1296" y1="0" x2="2016" y2="720" stroke="#8a6fc0" stroke-opacity="0.26" stroke-width="1"/><line x1="1296" y1="0" x2="576" y2="720" stroke="#8a6fc0" stroke-opacity="0.26" stroke-width="1"/><line x1="1344" y1="0" x2="2064" y2="720" stroke="#8a6fc0" stroke-opacity="0.26" stroke-width="1"/><line x1="1344" y1="0" x2="624" y2="720" stroke="#8a6fc0" stroke-opacity="0.26" stroke-width="1"/><line x1="1392" y1="0" x2="2112" y2="720" stroke="#8a6fc0" stroke-opacity="0.26" stroke-width="1"/><line x1="1392" y1="0" x2="672" y2="720" stroke="#8a6fc0" stroke-opacity="0.26" stroke-width="1"/><line x1="1440" y1="0" x2="2160" y2="720" stroke="#8a6fc0" stroke-opacity="0.26" stroke-width="1"/><line x1="1440" y1="0" x2="720" y2="720" stroke="#8a6fc0" stroke-opacity="0.26" stroke-width="1"/><line x1="1488" y1="0" x2="2208" y2="720" stroke="#8a6fc0" stroke-opacity="0.26" stroke-width="1"/><line x1="1488" y1="0" x2="768" y2="720" stroke="#8a6fc0" stroke-opacity="0.26" stroke-width="1"/><line x1="1536" y1="0" x2="2256" y2="720" stroke="#8a6fc0" stroke-opacity="0.26" stroke-width="1"/><line x1="1536" y1="0" x2="816" y2="720" stroke="#8a6fc0" stroke-opacity="0.26" stroke-width="1"/><line x1="1584" y1="0" x2="2304" y2="720" stroke="#8a6fc0" stroke-opacity="0.26" stroke-width="1"/><line x1="1584" y1="0" x2="864" y2="720" stroke="#8a6fc0" stroke-opacity="0.26" stroke-width="1"/><polygon points="168.41,559.7704 275.53,621.9 168.41,684.0296 61.28999999999999,621.9" fill="#b39ae0" fill-opacity="0.13" stroke="#b39ae0" stroke-opacity="0.72" stroke-width="1.6"/><path d="M61.28999999999999,621.9 L61.28999999999999,675.46 L168.41,737.5896 L168.41,684.0296 Z" fill="#8a6fc0" fill-opacity="0.14" stroke="#b39ae0" stroke-opacity="0.34" stroke-width="1.2"/><path d="M275.53,621.9 L275.53,675.46 L168.41,737.5896 L168.41,684.0296 Z" fill="#8a6fc0" fill-opacity="0.08" stroke="#b39ae0" stroke-opacity="0.34" stroke-width="1.2"/><polygon points="391.48,201.49779999999998 462.07000000000005,242.44 391.48,283.3822 320.89,242.44" fill="#b39ae0" fill-opacity="0.12" stroke="#b39ae0" stroke-opacity="0.72" stroke-width="1.6"/><path d="M320.89,242.44 L320.89,277.735 L391.48,318.6772 L391.48,283.3822 Z" fill="#8a6fc0" fill-opacity="0.14" stroke="#b39ae0" stroke-opacity="0.34" stroke-width="1.2"/><path d="M462.07000000000005,242.44 L462.07000000000005,277.735 L391.48,318.6772 L391.48,283.3822 Z" fill="#8a6fc0" fill-opacity="0.08" stroke="#b39ae0" stroke-opacity="0.34" stroke-width="1.2"/><polygon points="823.9,163.16060000000002 882.3299999999999,197.05 823.9,230.9394 765.47,197.05" fill="#b39ae0" fill-opacity="0.19" stroke="#b39ae0" stroke-opacity="0.72" stroke-width="1.6"/><path d="M765.47,197.05 L765.47,226.26500000000001 L823.9,260.1544 L823.9,230.9394 Z" fill="#8a6fc0" fill-opacity="0.14" stroke="#b39ae0" stroke-opacity="0.34" stroke-width="1.2"/><path d="M882.3299999999999,197.05 L882.3299999999999,226.26500000000001 L823.9,260.1544 L823.9,230.9394 Z" fill="#8a6fc0" fill-opacity="0.08" stroke="#b39ae0" stroke-opacity="0.34" stroke-width="1.2"/><polygon points="420.59,525.0428 517.43,581.21 420.59,637.3772 323.75,581.21" fill="#b39ae0" fill-opacity="0.16" stroke="#b39ae0" stroke-opacity="0.72" stroke-width="1.6"/><path d="M323.75,581.21 L323.75,629.63 L420.59,685.7972 L420.59,637.3772 Z" fill="#8a6fc0" fill-opacity="0.14" stroke="#b39ae0" stroke-opacity="0.34" stroke-width="1.2"/><path d="M517.43,581.21 L517.43,629.63 L420.59,685.7972 L420.59,637.3772 Z" fill="#8a6fc0" fill-opacity="0.08" stroke="#b39ae0" stroke-opacity="0.34" stroke-width="1.2"/><polygon points="159.03,82.52640000000001 246.95,133.52 159.03,184.5136 71.11,133.52" fill="#b39ae0" fill-opacity="0.22" stroke="#b39ae0" stroke-opacity="0.72" stroke-width="1.6"/><path d="M71.11,133.52 L71.11,177.48000000000002 L159.03,228.4736 L159.03,184.5136 Z" fill="#8a6fc0" fill-opacity="0.14" stroke="#b39ae0" stroke-opacity="0.34" stroke-width="1.2"/><path d="M246.95,133.52 L246.95,177.48000000000002 L159.03,228.4736 L159.03,184.5136 Z" fill="#8a6fc0" fill-opacity="0.08" stroke="#b39ae0" stroke-opacity="0.34" stroke-width="1.2"/><polygon points="977.39,170.7464 1025.31,198.54 977.39,226.3336 929.47,198.54" fill="#b39ae0" fill-opacity="0.15" stroke="#b39ae0" stroke-opacity="0.72" stroke-width="1.6"/><path d="M929.47,198.54 L929.47,222.5 L977.39,250.2936 L977.39,226.3336 Z" fill="#8a6fc0" fill-opacity="0.14" stroke="#b39ae0" stroke-opacity="0.34" stroke-width="1.2"/><path d="M1025.31,198.54 L1025.31,222.5 L977.39,250.2936 L977.39,226.3336 Z" fill="#8a6fc0" fill-opacity="0.08" stroke="#b39ae0" stroke-opacity="0.34" stroke-width="1.2"/><polygon points="950.68,520.398 1034.08,568.77 950.68,617.1419999999999 867.28,568.77" fill="#b39ae0" fill-opacity="0.11" stroke="#b39ae0" stroke-opacity="0.72" stroke-width="1.6"/><path d="M867.28,568.77 L867.28,610.47 L950.68,658.842 L950.68,617.1419999999999 Z" fill="#8a6fc0" fill-opacity="0.14" stroke="#b39ae0" stroke-opacity="0.34" stroke-width="1.2"/><path d="M1034.08,568.77 L1034.08,610.47 L950.68,658.842 L950.68,617.1419999999999 Z" fill="#8a6fc0" fill-opacity="0.08" stroke="#b39ae0" stroke-opacity="0.34" stroke-width="1.2"/><polygon points="585.47,83.35619999999999 669.58,132.14 585.47,180.92379999999997 501.36,132.14" fill="#b39ae0" fill-opacity="0.22" stroke="#b39ae0" stroke-opacity="0.72" stroke-width="1.6"/><path d="M501.36,132.14 L501.36,174.195 L585.47,222.97879999999998 L585.47,180.92379999999997 Z" fill="#8a6fc0" fill-opacity="0.14" stroke="#b39ae0" stroke-opacity="0.34" stroke-width="1.2"/><path d="M669.58,132.14 L669.58,174.195 L585.47,222.97879999999998 L585.47,180.92379999999997 Z" fill="#8a6fc0" fill-opacity="0.08" stroke="#b39ae0" stroke-opacity="0.34" stroke-width="1.2"/><polygon points="617.35,426.0362 702.96,475.69 617.35,525.3438 531.74,475.69" fill="#b39ae0" fill-opacity="0.21" stroke="#b39ae0" stroke-opacity="0.72" stroke-width="1.6"/><path d="M531.74,475.69 L531.74,518.495 L617.35,568.1487999999999 L617.35,525.3438 Z" fill="#8a6fc0" fill-opacity="0.14" stroke="#b39ae0" stroke-opacity="0.34" stroke-width="1.2"/><path d="M702.96,475.69 L702.96,518.495 L617.35,568.1487999999999 L617.35,525.3438 Z" fill="#8a6fc0" fill-opacity="0.08" stroke="#b39ae0" stroke-opacity="0.34" stroke-width="1.2"/><polygon points="689.1,297.84319999999997 745.5600000000001,330.59 689.1,363.3368 632.64,330.59" fill="#b39ae0" fill-opacity="0.21" stroke="#b39ae0" stroke-opacity="0.72" stroke-width="1.6"/><path d="M632.64,330.59 L632.64,358.82 L689.1,391.5668 L689.1,363.3368 Z" fill="#8a6fc0" fill-opacity="0.14" stroke="#b39ae0" stroke-opacity="0.34" stroke-width="1.2"/><path d="M745.5600000000001,330.59 L745.5600000000001,358.82 L689.1,391.5668 L689.1,363.3368 Z" fill="#8a6fc0" fill-opacity="0.08" stroke="#b39ae0" stroke-opacity="0.34" stroke-width="1.2"/><circle cx="188" cy="268" r="6" fill="#e95978" fill-opacity="0.9"/><text x="78" y="632" fill="#fff" fill-opacity=".9" font-family="system-ui, sans-serif" font-size="46" font-weight="700" letter-spacing="6">NOIMPTY</text></svg>